# Alias OBJ Model File
# Exported from SketchUp, (c) 2000-2012 Trimble Navigation Limited
# File units = meters

mtllib table_coffee01.mtl

g Mesh1 Group1 Model

usemtl Wood_Floor_Parquet
v 1.51633 1.13051e-015 1.61191
vt -155.107 -5.92119e-016
vn 0 0 1
v 1.74126 1.13051e-015 1.61191
vt -154.738 -5.92119e-016
v 1.74126 1.05034 1.61191
vt -154.738 1.723
v 1.51633 1.05034 1.61191
vt -155.107 1.723
v 1.51633 0.767767 1.61191
vt -155.107 1.25946
f 1/1/1 2/2/1 3/3/1 4/4/1 5/5/1 

vt -84.5789 -5.92119e-016
vn 1 0 -0
v 1.74126 1.13051e-015 1.38698
vt -84.2099 -5.92119e-016
v 1.74126 0.767767 1.38698
vt -84.2099 1.25946
v 1.74126 1.05034 1.38698
vt -84.2099 1.723
vt -84.5789 1.723
f 2/6/2 6/7/2 7/8/2 8/9/2 3/10/2 

v 1.51633 1.13051e-015 1.38698
vt 160.082 -5.92119e-016
vt 160.451 -5.92119e-016
vt 160.451 1.25946
v 1.51633 0.767767 1.38698
vt 160.082 1.25946
f 9/11/1 6/12/1 7/13/1 10/14/1 

vt 84.2099 -5.92119e-016
vn -1 0 -0
vt 84.5789 -5.92119e-016
vt 84.5789 1.25946
vt 84.2099 1.25946
f 9/15/3 1/16/3 5/17/3 10/18/3 

g Mesh2 Group1 Model

v -1.58182 1.13051e-015 1.61191
vt -160.19 -5.92119e-016
v -1.35689 1.13051e-015 1.61191
vt -159.821 -5.92119e-016
v -1.35689 0.767767 1.61191
vt -159.821 1.25946
v -1.35689 1.05034 1.61191
vt -159.821 1.723
v -1.58182 1.05034 1.61191
vt -160.19 1.723
f 11/19/1 12/20/1 13/21/1 14/22/1 15/23/1 

v -1.35689 1.13051e-015 1.38698
v -1.35689 0.767767 1.38698
vt -84.5789 1.25946
f 12/6/2 16/7/2 17/8/2 13/24/2 

vt 159.821 -5.92119e-016
vn 0 0 -1
v -1.58182 1.13051e-015 1.38698
vt 160.19 -5.92119e-016
v -1.58182 0.767767 1.38698
vt 160.19 1.25946
vt 159.821 1.25946
f 16/25/4 18/26/4 19/27/4 17/28/4 

vt 84.5789 1.723
v -1.58182 1.05034 1.38698
vt 84.2099 1.723
f 18/15/3 11/16/3 15/29/3 20/30/3 19/18/3 

g Mesh3 Group1 Model

v 1.74126 1.31099e-015 -1.48624
vt -79.4966 -2.96059e-016
v 1.74126 1.31099e-015 -1.71117
vt -79.1276 -2.96059e-016
v 1.74126 1.05034 -1.71117
vt -79.1276 1.723
v 1.74126 1.05034 -1.48624
vt -79.4966 1.723
v 1.74126 0.767767 -1.48624
vt -79.4966 1.25946
f 21/31/2 22/32/2 23/33/2 24/34/2 25/35/2 

vt 154.738 -2.96059e-016
v 1.51633 1.31099e-015 -1.71117
vt 155.107 -2.96059e-016
v 1.51633 0.767767 -1.71117
vt 155.107 1.25946
v 1.51633 1.05034 -1.71117
vt 155.107 1.723
vt 154.738 1.723
f 22/36/4 26/37/4 27/38/4 28/39/4 23/40/4 

vt 79.1276 -2.96059e-016
v 1.51633 1.31099e-015 -1.48624
vt 79.4966 -2.96059e-016
v 1.51633 0.767767 -1.48624
vt 79.4966 1.25946
vt 79.1276 1.25946
f 26/41/3 29/42/3 30/43/3 27/44/3 

vt -155.107 -2.96059e-016
vt -154.738 -2.96059e-016
vt -154.738 1.25946
f 29/45/1 21/46/1 25/47/1 30/5/1 

g Mesh4 Group1 Model

v -1.35689 1.31099e-015 -1.71117
vt 159.821 -2.96059e-016
v -1.58182 1.31099e-015 -1.71117
vt 160.19 -2.96059e-016
v -1.58182 1.05034 -1.71117
vt 160.19 1.723
v -1.35689 1.05034 -1.71117
vt 159.821 1.723
v -1.35689 0.767767 -1.71117
f 31/48/4 32/49/4 33/50/4 34/51/4 35/28/4 

v -1.58182 1.31099e-015 -1.48624
v -1.58182 0.767767 -1.48624
v -1.58182 1.05034 -1.48624
vt 79.4966 1.723
vt 79.1276 1.723
f 32/41/3 36/42/3 37/43/3 38/52/3 33/53/3 

vt -160.19 -2.96059e-016
v -1.35689 1.31099e-015 -1.48624
vt -159.821 -2.96059e-016
v -1.35689 0.767767 -1.48624
vt -160.19 1.25946
f 36/54/1 39/55/1 40/21/1 37/56/1 

vt -79.1276 1.25946
f 39/31/2 31/32/2 35/57/2 40/35/2 

g Mesh5 Group2 Model

v -1.75137 1.2877 1.75885
vt 154.722 79.0494
vn 0 1 -0
v 1.8769 1.2877 1.75885
vt 160.674 79.0494
v 1.8769 1.2877 -1.80725
vt 160.674 84.8993
v -1.75137 1.2877 -1.80725
vt 154.722 84.8993
f 41/58/5 42/59/5 43/60/5 44/61/5 

v -1.35689 1.05034 1.75885
vt 155.369 1.723
v 1.8769 1.05034 1.75885
vt 160.674 1.723
vt 160.674 2.11238
vt 154.722 2.11238
v -1.75137 1.05034 1.75885
vt 154.722 1.723
v -1.58182 1.05034 1.75885
vt 155 1.723
f 45/62/1 46/63/1 42/64/1 41/65/1 47/66/1 48/67/1 

vt -155.369 79.2904
vn 0 -1 -0
vt -160.082 79.2904
vt -160.451 79.2904
v 1.8769 1.05034 1.61191
vt -160.674 79.2904
vt -160.674 79.0494
vt -155.369 79.0494
f 14/68/6 4/69/6 3/70/6 49/71/6 46/72/6 45/73/6 

vt 155.369 1.25946
vt 160.082 1.723
f 13/74/1 5/14/1 4/75/1 14/62/1 

vt -155.369 79.6594
vt -155 79.6594
vt -155 84.3727
vt -155.369 84.3727
vt -155.369 84.7417
vt -160.082 84.7417
vt -160.082 84.3727
vt -160.451 84.3727
vt -160.451 79.6594
vt -160.082 79.6594
f 5/69/6 13/68/6 17/76/6 19/77/6 37/78/6 40/79/6 35/80/6 27/81/6 30/82/6 25/83/6 7/84/6 10/85/6 

vt -84.3727 1.25946
vt -79.6594 1.25946
vt -79.6594 1.723
vt -84.3727 1.723
f 37/86/3 19/87/3 20/88/3 38/89/3 

vn 3.41378e-016 -1 -1.34497e-016
vt -155 79.2904
vt -155 79.0494
vt -154.722 79.0494
v -1.75137 1.05034 -1.80725
vt -154.722 84.8993
v -1.58182 1.05034 -1.80725
vt -155 84.8993
vt -155 84.7417
f 38/78/7 20/77/7 15/90/7 48/91/7 47/92/7 50/93/7 51/94/7 33/95/7 

vn 1.60473e-015 -1 -0
f 15/90/8 14/68/8 45/73/8 48/91/8 

vt -84.8993 1.723
vt -79.0494 1.723
vt -79.0494 2.11238
vt -84.8993 2.11238
f 50/96/3 47/97/3 41/98/3 44/99/3 

v -1.35689 1.05034 -1.80725
vt -155.369 1.723
vt -155 1.723
vt -154.722 1.723
vt -154.722 2.11238
vt -160.674 2.11238
v 1.8769 1.05034 -1.80725
vt -160.674 1.723
f 52/100/4 51/101/4 50/102/4 44/103/4 43/104/4 53/105/4 

vt -155.369 84.8993
f 34/80/6 33/95/6 51/94/6 52/106/6 

vn -6.39407e-017 -1 1.39473e-015
vt -160.674 84.8993
v 1.8769 1.05034 -1.71117
vt -160.674 84.7417
vt -160.451 84.7417
f 28/81/9 34/80/9 52/106/9 53/107/9 54/108/9 23/109/9 

vt -160.082 1.25946
vt -155.369 1.25946
vt -160.082 1.723
f 27/110/4 35/111/4 34/100/4 28/112/4 

v 1.8769 1.05034 -1.48624
vt 84.3727 1.723
vt 84.7417 1.723
vt 84.8993 1.723
vt 84.8993 2.11238
vt 79.0494 2.11238
vt 79.0494 1.723
vt 79.2904 1.723
v 1.8769 1.05034 1.38698
vt 79.6594 1.723
f 55/113/2 54/114/2 53/115/2 43/116/2 42/117/2 46/118/2 49/119/2 56/120/2 

vt -160.674 84.3727
f 24/83/6 23/109/6 54/108/6 55/121/6 

vn 0 -1 -1.25628e-016
vt -160.674 79.6594
f 8/84/10 24/83/10 55/121/10 56/122/10 

vt 79.6594 1.25946
vt 84.3727 1.25946
f 7/123/2 25/124/2 24/113/2 8/120/2 

f 3/70/6 8/84/6 56/122/6 49/71/6 

g Mesh6 Model

v 1.51633 1.05034 -1.48624
vn 8.02366e-016 -1 8.02366e-016
f 57/82/11 28/81/11 23/109/11 24/83/11 

vt 84.7417 1.25946
f 30/124/2 27/125/2 28/114/2 57/113/2 

vt -160.451 1.25946
vt -160.451 1.723
f 25/126/4 30/110/4 57/112/4 24/127/4 

g Mesh7 Model

vn 8.02366e-016 -1 -8.02366e-016
v -1.35689 1.05034 1.38698
f 20/77/12 58/76/12 14/68/12 15/90/12 

vt 155 1.25946
f 19/128/1 17/74/1 58/62/1 20/67/1 

vt -79.2904 1.25946
vt -79.2904 1.723
f 17/87/3 13/129/3 14/130/3 58/88/3 

g Mesh8 Model

v -1.35689 1.05034 -1.48624
f 59/79/6 38/78/6 33/95/6 34/80/6 

vt -155 1.25946
f 40/111/4 37/131/4 38/101/4 59/100/4 

vt -84.7417 1.25946
vt -84.7417 1.723
f 35/132/3 40/86/3 59/89/3 34/133/3 

g Mesh9 Model

v 1.51633 1.05034 1.38698
f 4/69/6 60/85/6 8/84/6 3/70/6 

vt 79.2904 1.25946
f 5/134/2 10/123/2 60/120/2 4/119/2 

vt 160.451 1.723
f 10/14/1 7/13/1 8/135/1 60/75/1 

