# Blender v2.74 (sub 0) OBJ File: 'box_2.5_x_3_x_2.5.blend'
# www.blender.org
mtllib default_wall_thin_end_uncapped.mtl
o Cube_Cube.001
v -1.250000 1.500000 1.250000
v -1.250000 1.500000 -1.250000
v -1.250000 -1.500000 -1.250000
v -1.250000 -1.500000 1.250000
v 1.250000 1.500000 -1.250000
v 1.250000 -1.500000 -1.250000
v 1.250000 1.500000 1.250000
v 1.250000 -1.500000 1.250000
vn -1.000000 0.000000 0.000000
vn 1.000000 0.000000 0.000000
vn 0.000000 -0.000000 1.000000
vn 0.000000 -1.000000 -0.000000
usemtl None
s 1
f 1//1 2//1 3//1 4//1
f 5//2 7//2 8//2 6//2
f 7//3 1//3 4//3 8//3
f 4//4 3//4 6//4 8//4
