# Blender v2.74 (sub 0) OBJ File: 'box_2.5_x_3_x_2.5.blend'
# www.blender.org
mtllib default_wall_thin_inner.mtl
o Cube_Cube.001
v -1.250000 1.500000 1.250000
v -1.250000 1.500000 -1.250000
v 1.250000 1.500000 -1.250000
v 1.250000 -1.500000 -1.250000
v 1.250000 1.500000 1.250000
v 1.250000 -1.500000 1.250000
vt 0.000000 0.000000
vt 1.000000 0.000000
vt 1.000000 1.000000
vt 0.000000 1.000000
vn 1.000000 0.000000 0.000000
vn 0.000000 1.000000 0.000000
usemtl None
s 1
f 3/1/1 5/2/1 6/3/1 4/4/1
f 5/1/2 3/2/2 2/3/2 1/4/2
