mtllib dirt_one_sided_00.mtl
o dirt_one_sided_00.obj
v -1.250000 2.829811 -1.249996
v 1.080069 2.122358 -1.250004
v 1.097661 1.768632 -1.250004
v 1.060370 0.000002 -1.250004
v 1.060370 0.000002 1.250010
v 0.864003 2.829811 -1.249996
v 1.082841 0.707455 1.250010
v 0.982061 1.414907 1.250010
v 1.080069 2.122360 1.250010
v 0.779498 0.000002 -0.624994
v 0.954228 0.000001 0.000008
v 1.060728 0.000001 0.625008
v 1.082841 0.707453 -1.250004
v 0.982061 1.414905 -1.250004
v 0.696368 2.829811 0.000008
v 1.050705 0.707454 -0.624994
v 0.960917 1.414906 -0.624994
v 0.977713 2.122359 -0.624994
v 0.924462 0.707454 0.000008
v 0.910610 1.414906 0.000008
v 0.917724 2.122359 0.000008
v 0.864132 0.707454 0.625008
v 1.149515 1.414906 0.625008
v 0.758942 2.122359 0.625008
v 1.105730 0.353729 1.250010
v 0.959837 1.061181 1.250010
v 1.097661 1.768634 1.250010
v 1.115836 2.476086 1.250010
v 1.018668 0.000002 -0.937500
v 0.715058 0.000002 -0.312498
v 1.060728 0.000001 0.312504
v 0.911885 0.000001 0.937504
v 1.105730 0.353727 -1.250004
v 0.959837 1.061179 -1.250004
v 1.115846 2.476084 -1.249996
v 0.793331 2.476084 -0.624994
v 1.108130 2.122359 -0.937500
v 0.977713 1.768633 -0.624994
v 1.073374 1.414906 -0.937500
v 0.793922 1.061180 -0.624994
v 1.222798 0.707454 -0.937500
v 0.779498 0.353728 -0.624994
v 0.547400 2.476084 0.000008
v 0.890148 2.122359 -0.312498
v 0.917724 1.768633 0.000008
v 0.970555 1.414906 -0.312498
v 0.793007 1.061180 0.000008
v 0.924462 0.707454 -0.312498
v 0.746288 0.353728 0.000008
v 1.061586 2.476085 0.625008
v 0.748036 2.122359 0.312504
v 0.947365 1.768633 0.625008
v 0.910610 1.414906 0.312504
v 1.039248 1.061180 0.625008
v 0.864132 0.707454 0.312504
v 0.785123 0.353728 0.625008
v 0.738044 2.122359 0.937504
v 1.020620 1.414906 0.937504
v 0.984639 0.707454 0.937504
v 1.027674 2.476084 -0.937500
v 1.108130 1.768633 -0.937500
v 1.073374 1.061180 -0.937500
v 1.018668 0.353728 -0.937500
v 0.744611 2.476084 -0.312498
v 0.890148 1.768633 -0.312498
v 0.852953 1.061180 -0.312498
v 0.507118 0.353728 -0.312498
v 0.721968 2.476085 0.312504
v 0.844510 1.768633 0.312504
v 0.800344 1.061180 0.312504
v 0.785123 0.353728 0.312504
v 0.738044 2.476085 0.937504
v 0.829990 1.768633 0.937504
v 1.020620 1.061180 0.937504
v 0.646518 0.353728 0.937504
v -1.250000 2.829811 1.250010
v 0.864003 2.829812 1.250010
v 0.864003 2.829810 -0.937500
v 0.793331 2.829810 -0.624994
v 0.744611 2.829810 -0.312498
v 0.818441 2.829810 0.312504
v 0.890175 2.829810 0.625008
v 0.829990 2.829811 0.937504
v -1.250000 2.829811 0.937504
v -1.250000 2.829811 0.625008
v -1.250000 2.829811 0.312504
v -1.250000 2.829810 0.000008
v -1.250000 2.829810 -0.312498
v -1.250000 2.829810 -0.624994
v -1.250000 2.829810 -0.937500
v 1.250001 0.000000 -1.250002
v 1.250001 0.000000 1.250004
v 1.060364 0.000000 1.250019
v 1.250001 0.000000 -0.937502
v 1.250001 0.000000 -0.625002
v 1.250001 0.000000 -0.312500
v 1.250001 0.000000 0.000000
v 1.250001 0.000000 0.312502
v 1.250001 0.000000 0.625002
v 1.250001 0.000000 0.937502
v 1.060371 0.000002 -1.250019
v 0.911892 0.000001 0.937502
v 1.060729 0.000001 0.625019
v 1.060729 0.000001 0.312517
v 0.954235 0.000001 0.000000
v 0.715061 0.000002 -0.312500
v 0.779497 0.000002 -0.624985
v 1.018671 0.000002 -0.937502
v 0.864003 2.829810 -0.937500
v 0.793331 2.829810 -0.624994
v 0.744611 2.829810 -0.312498
v 0.818441 2.829810 0.312504
v 0.890175 2.829810 0.625008
v 0.829990 2.829811 0.937504
v 0.864003 2.829812 1.250010
v 0.696368 2.829811 0.000008
v 0.864003 2.829811 -1.249996
vn 0.000000 1.000000 0.000004
vn 0.995443 -0.024172 0.092244
vn 0.989231 -0.132760 -0.061625
vn 0.956048 -0.122598 0.266350
vn 0.518329 0.388853 -0.761661
vn 0.814625 0.579987 0.000002
vn 0.908439 -0.417670 -0.017032
vn 0.940744 0.210193 -0.266120
vn 0.653546 0.086703 -0.751904
vn 0.774370 0.000000 0.632734
vn 0.811288 0.476920 -0.338169
vn 0.777685 0.605931 0.167490
vn 0.910297 0.186462 -0.369581
vn 0.969261 -0.188287 -0.158373
vn 0.976456 -0.192185 -0.097975
vn 0.927399 -0.045474 0.371300
vn 0.957946 -0.144682 0.247804
vn 0.919159 0.164847 0.357733
vn 0.977359 -0.189124 0.094879
vn 0.990459 -0.109878 0.083175
vn 0.946067 0.286061 0.152073
vn 0.951489 -0.192722 -0.239849
vn 0.997212 0.037671 -0.064414
vn 0.995817 0.086591 -0.029179
vn 0.766904 -0.178656 -0.616393
vn 0.986422 -0.049769 0.156507
vn 0.688793 0.277828 -0.669608
vn 0.869147 -0.135918 -0.475510
vn 0.892874 -0.062545 0.445942
vn 0.958868 0.275284 0.069212
vn 0.825925 0.561240 -0.053451
vn 0.765751 0.587536 -0.261585
vn 0.996558 -0.033970 -0.075619
vn 0.942847 0.127545 -0.307851
vn 0.954534 0.260156 0.145548
vn 0.920227 0.272297 0.281135
vn 0.953045 0.034248 0.300885
vn 0.944113 -0.034083 0.327854
vn 0.986851 -0.120728 0.107473
vn 0.964706 0.130604 0.228658
vn 0.992756 0.065888 0.100474
vn 0.807924 -0.269852 0.523868
vn 0.981721 0.189911 -0.012533
vn 0.954329 0.206421 0.215977
vn 0.989108 0.052115 0.137658
vn 0.985281 -0.146832 0.087531
vn 0.995705 -0.021812 0.089981
vn 0.978922 -0.175282 0.104822
vn 0.984014 -0.088551 -0.154516
vn 0.994363 -0.092424 -0.051963
vn 0.936662 0.292354 -0.192856
vn 0.934024 0.357138 0.007120
vn 0.977666 -0.107953 -0.180319
vn 0.947755 -0.232209 -0.218725
vn 0.990962 -0.047401 -0.125486
vn 0.975431 0.220216 -0.006266
vn 0.958122 0.045174 -0.282774
vn 0.984543 0.165660 0.056848
vn 0.922701 -0.375489 -0.087357
vn 0.916065 0.285149 0.281984
vn 0.981596 -0.091067 0.167855
vn 0.982536 0.154476 0.103729
vn 0.957752 -0.143200 0.249408
vn 0.947616 0.203997 0.245783
vn 0.994617 0.044760 0.093451
vn 0.998628 0.010627 0.051271
vn 0.943784 -0.301696 0.135099
vn 0.884238 0.028932 -0.466139
vn 0.989263 0.110264 0.095925
vn 0.943066 -0.018018 -0.332118
vn 0.991426 0.129431 0.017946
vn 0.993889 -0.106829 -0.027793
vn 0.866012 0.420514 -0.270540
vn 0.959702 -0.209540 0.187258
vn 0.943771 0.029856 -0.329249
vn -0.000000 1.000000 0.000000
vn 0.962512 -0.250193 -0.104758
vn 0.859859 0.500346 0.101474
vn 0.960557 0.210502 0.181712
vn 0.988179 0.000000 0.153306
vn 0.908210 -0.312306 -0.278604
vn 0.995261 0.094037 -0.024737
vn 0.994695 0.096547 0.035507
vn -0.000000 1.000000 0.000000
vn 0.000000 1.000000 0.000000
vn 0.000001 1.000000 -0.000002
vn -0.000000 1.000000 -0.000002
vn -0.000000 1.000000 0.000000
vn 0.000000 1.000000 0.000000
vn 0.000000 1.000000 0.000002
vn 0.000011 1.000000 0.000000
vn 0.000003 1.000000 0.000000
vn 0.000003 1.000000 0.000000
vn 0.000010 1.000000 0.000000
vn 0.000006 1.000000 0.000000
vn 0.000004 1.000000 0.000000
vn 0.000004 1.000000 0.000000
vn 0.000004 1.000000 0.000000
vn 0.000005 1.000000 0.000000
vn 0.000004 1.000000 0.000000
vn 0.000011 1.000000 0.000000
vn 0.000004 1.000000 0.000000
vn 0.000005 1.000000 0.000000
vn 0.000004 1.000000 0.000000
vn 0.000004 1.000000 0.000000
vn 0.000004 1.000000 0.000000
vn 0.000006 1.000000 0.000000
vn 0.000010 1.000000 0.000000
vn 0.000000 1.000000 0.000002
vn 0.000000 1.000000 0.000000
vn -0.000000 1.000000 0.000000
vn 0.000001 1.000000 -0.000002
vn 0.000000 1.000000 0.000000
vn -0.000000 1.000000 0.000000
vn -0.000000 1.000000 0.000000
vn -0.000000 1.000000 -0.000002
vn 0.000000 1.000000 0.000004
vt 1.000000 0.875166
vt 1.000000 1.000000
vt 0.875166 1.000000
vt 0.875166 0.875166
vt 1.000000 0.750332
vt 0.875166 0.750332
vt 0.750332 1.000000
vt 0.750332 0.875166
vt 0.750332 0.750332
vt 1.000000 0.624834
vt 0.875166 0.624834
vt 1.000000 0.500000
vt 0.875166 0.500000
vt 0.750332 0.624834
vt 0.750332 0.500000
vt 1.000000 0.375166
vt 0.875166 0.375166
vt 1.000000 0.250332
vt 0.875166 0.250332
vt 0.750332 0.375166
vt 0.750332 0.250332
vt 1.000000 0.124834
vt 0.875166 0.124834
vt 1.000000 0.000000
vt 0.875166 0.000000
vt 0.750332 0.124834
vt 0.750332 0.000000
vt 0.624834 1.000000
vt 0.624834 0.875166
vt 0.624834 0.750332
vt 0.500000 1.000000
vt 0.500000 0.875166
vt 0.500000 0.750332
vt 0.624834 0.624834
vt 0.624834 0.500000
vt 0.500000 0.624834
vt 0.500000 0.500000
vt 0.624834 0.375166
vt 0.624834 0.250332
vt 0.500000 0.375166
vt 0.500000 0.249668
vt 0.624834 0.124834
vt 0.624834 0.000000
vt 0.500000 0.124834
vt 0.500000 0.000000
vt 0.375166 1.000000
vt 0.375166 0.875166
vt 0.375166 0.750332
vt 0.249668 1.000000
vt 0.249668 0.875166
vt 0.250332 0.750332
vt 0.375166 0.624834
vt 0.375166 0.500000
vt 0.250332 0.624834
vt 0.250332 0.500000
vt 0.375166 0.375166
vt 0.375166 0.250332
vt 0.250332 0.375166
vt 0.250332 0.250332
vt 0.375166 0.124834
vt 0.375166 0.000000
vt 0.250332 0.124834
vt 0.250332 0.000000
vt 0.250332 0.875166
vt 0.124834 1.000000
vt 0.124834 0.875166
vt 0.124834 0.749668
vt 0.000000 1.000000
vt 0.000000 0.875166
vt 0.000000 0.749668
vt 0.124834 0.750332
vt 0.124834 0.624834
vt 0.124834 0.500000
vt 0.000000 0.624834
vt 0.000000 0.500000
vt 0.124834 0.375166
vt 0.124834 0.250332
vt 0.000000 0.375166
vt 0.000000 0.250332
vt 0.124834 0.124834
vt 0.124834 0.000000
vt 0.000000 0.124834
vt 0.000000 0.000000
vt 0.000664 1.000000
vt 0.000664 0.875830
vt 0.847942 0.875830
vt 0.847942 1.000000
vt 0.000664 0.750996
vt 0.819389 0.750996
vt 0.000664 0.626162
vt 0.799469 0.626162
vt 0.000664 0.500664
vt 0.780212 0.501328
vt 0.000664 0.375166
vt 0.830013 0.375166
vt 0.000664 0.250332
vt 0.857902 0.250332
vt 0.000664 0.124834
vt 0.833333 0.124834
vt 0.000664 0.000664
vt 0.847942 0.000664
vt 1.000000 0.874502
vt 1.000000 1.000000
vt 0.931607 1.000000
vt 0.916999 0.874502
vt 1.000000 0.749668
vt 0.830677 0.749668
vt 1.000000 0.624834
vt 0.807437 0.624834
vt 1.000000 0.500000
vt 0.893758 0.500000
vt 1.000000 0.374502
vt 0.931607 0.374502
vt 1.000000 0.249668
vt 0.931607 0.249668
vt 1.000000 0.124834
vt 0.878486 0.124834
vt 1.000000 0.000000
vt 0.931607 0.000000
g Dirt101E-A
usemtl Default
f 35/1/35 6/2/6 78/3/78 60/4/60 
f 2/5/2 35/1/35 60/4/60 37/6/37 
f 60/4/60 78/3/78 79/7/79 36/8/36 
f 37/6/37 60/4/60 36/8/36 18/9/18 
f 3/10/3 2/5/2 37/6/37 61/11/61 
f 14/12/14 3/10/3 61/11/61 39/13/39 
f 61/11/61 37/6/37 18/9/18 38/14/38 
f 39/13/39 61/11/61 38/14/38 17/15/17 
f 34/16/34 14/12/14 39/13/39 62/17/62 
f 13/18/13 34/16/34 62/17/62 41/19/41 
f 62/17/62 39/13/39 17/15/17 40/20/40 
f 41/19/41 62/17/62 40/20/40 16/21/16 
f 33/22/33 13/18/13 41/19/41 63/23/63 
f 4/24/4 33/22/33 63/23/63 29/25/29 
f 63/23/63 41/19/41 16/21/16 42/26/42 
f 29/25/29 63/23/63 42/26/42 10/27/10 
f 36/8/36 79/7/79 80/28/80 64/29/64 
f 18/9/18 36/8/36 64/29/64 44/30/44 
f 64/29/64 80/28/80 15/31/15 43/32/43 
f 44/30/44 64/29/64 43/32/43 21/33/21 
f 38/14/38 18/9/18 44/30/44 65/34/65 
f 17/15/17 38/14/38 65/34/65 46/35/46 
f 65/34/65 44/30/44 21/33/21 45/36/45 
f 46/35/46 65/34/65 45/36/45 20/37/20 
f 40/20/40 17/15/17 46/35/46 66/38/66 
f 16/21/16 40/20/40 66/38/66 48/39/48 
f 66/38/66 46/35/46 20/37/20 47/40/47 
f 48/39/48 66/38/66 47/40/47 19/41/19 
f 42/26/42 16/21/16 48/39/48 67/42/67 
f 10/27/10 42/26/42 67/42/67 30/43/30 
f 67/42/67 48/39/48 19/41/19 49/44/49 
f 30/43/30 67/42/67 49/44/49 11/45/11 
f 43/32/43 15/31/15 81/46/81 68/47/68 
f 21/33/21 43/32/43 68/47/68 51/48/51 
f 68/47/68 81/46/81 82/49/82 50/50/50 
f 51/48/51 68/47/68 50/50/50 24/51/24 
f 45/36/45 21/33/21 51/48/51 69/52/69 
f 20/37/20 45/36/45 69/52/69 53/53/53 
f 69/52/69 51/48/51 24/51/24 52/54/52 
f 53/53/53 69/52/69 52/54/52 23/55/23 
f 47/40/47 20/37/20 53/53/53 70/56/70 
f 19/41/19 47/40/47 70/56/70 55/57/55 
f 70/56/70 53/53/53 23/55/23 54/58/54 
f 55/57/55 70/56/70 54/58/54 22/59/22 
f 49/44/49 19/41/19 55/57/55 71/60/71 
f 11/45/11 49/44/49 71/60/71 31/61/31 
f 71/60/71 55/57/55 22/59/22 56/62/56 
f 31/61/31 71/60/71 56/62/56 12/63/12 
f 50/64/50 82/49/82 83/65/83 72/66/72 
f 24/51/24 50/64/50 72/66/72 57/67/57 
f 72/66/72 83/65/83 77/68/77 28/69/28 
f 57/67/57 72/66/72 28/69/28 9/70/9 
f 52/54/52 24/51/24 57/71/57 73/72/73 
f 23/55/23 52/54/52 73/72/73 58/73/58 
f 73/72/73 57/71/57 9/70/9 27/74/27 
f 58/73/58 73/72/73 27/74/27 8/75/8 
f 54/58/54 23/55/23 58/73/58 74/76/74 
f 22/59/22 54/58/54 74/76/74 59/77/59 
f 74/76/74 58/73/58 8/75/8 26/78/26 
f 59/77/59 74/76/74 26/78/26 7/79/7 
f 56/62/56 22/59/22 59/77/59 75/80/75 
f 12/63/12 56/62/56 75/80/75 32/81/32 
f 75/80/75 59/77/59 7/79/7 25/82/25 
f 32/81/32 75/80/75 25/82/25 5/83/5 
f 1/84/1 90/85/90 109/86/109 117/87/117 
f 90/85/90 89/88/89 110/89/110 109/86/109 
f 89/88/89 88/90/88 111/91/111 110/89/110 
f 88/90/88 87/92/87 116/93/116 111/91/111 
f 87/92/87 86/94/86 112/95/112 116/93/116 
f 86/94/86 85/96/85 113/97/113 112/95/112 
f 85/96/85 84/98/84 114/99/114 113/97/113 
f 84/98/84 76/100/76 115/101/115 114/99/114 
f 94/102/94 91/103/91 101/104/101 108/105/108 
f 95/106/95 94/102/94 108/105/108 107/107/107 
f 96/108/96 95/106/95 107/107/107 106/109/106 
f 97/110/97 96/108/96 106/109/106 105/111/105 
f 98/112/98 97/110/97 105/111/105 104/113/104 
f 99/114/99 98/112/98 104/113/104 103/115/103 
f 100/116/100 99/114/99 103/115/103 102/117/102 
f 92/118/92 100/116/100 102/117/102 93/119/93 
