# Alias OBJ Model File
# Exported from SketchUp, (c) 2000-2006 Google, Inc.
# File units = inches

mtllib ring.mtl

g Mesh1 Model

usemtl FrontColor
v -0.12941 0.482963 0
vt 0.12941 0.482963
vn 0 0 -1
v 3.06162e-017 0.5 0
vt -3.06162e-017 0.5
v 0.12941 0.482963 0
vt -0.12941 0.482963
v 0.25 0.433013 0
vt -0.25 0.433013
v 0.353553 0.353553 0
vt -0.353553 0.353553
v 0.433013 0.25 0
vt -0.433013 0.25
v 0.482963 0.12941 0
vt -0.482963 0.12941
v 0.5 0 0
vt -0.5 0
v 0.482963 -0.12941 0
vt -0.482963 -0.12941
v 0.433013 -0.25 0
vt -0.433013 -0.25
v 0.353553 -0.353553 0
vt -0.353553 -0.353553
v 0.25 -0.433013 0
vt -0.25 -0.433013
v 0.12941 -0.482963 0
vt -0.12941 -0.482963
v -9.18485e-017 -0.5 0
vt 9.18485e-017 -0.5
v -0.12941 -0.482963 0
vt 0.12941 -0.482963
v -0.25 -0.433013 0
vt 0.25 -0.433013
v -0.353553 -0.353553 0
vt 0.353553 -0.353553
v -0.433013 -0.25 0
vt 0.433013 -0.25
v -0.482963 -0.12941 0
vt 0.482963 -0.12941
v -0.5 6.12323e-017 0
vt 0.5 6.12323e-017
v -0.482963 0.12941 0
vt 0.482963 0.12941
v -0.433013 0.25 0
vt 0.433013 0.25
v -0.353553 0.353553 0
vt 0.353553 0.353553
v -0.25 0.433013 0
vt 0.25 0.433013
f 1/1/1 2/2/1 3/3/1 4/4/1 5/5/1 6/6/1 7/7/1 8/8/1 9/9/1 10/10/1 11/11/1 12/12/1 13/13/1 14/14/1 15/15/1 16/16/1 17/17/1 18/18/1 19/19/1 20/20/1 21/21/1 22/22/1 23/23/1 24/24/1 

