# Alias Wavefront OBJ File Exported from SketchUp
# with OBJexporter (c) 2010-2011 TIG
# Units = meters

mtllib consoleBare.mtl

g consoleBare-SKP--Default_Material
usemtl Default_Material
v 0.600510 -0.022795 0.204818
v -0.649459 -0.112795 0.195896
v 0.600510 -0.112796 0.204818
v -0.649459 -0.022794 0.195896
v 0.600510 0.053406 0.204818
v -0.649459 0.053408 0.195896
v 0.600510 0.131643 0.204818
v -0.649459 0.131644 0.195896
v 0.600510 0.131643 0.204818
v -0.646666 0.053405 -0.195299
v -0.649459 0.131644 0.195896
v 0.603302 0.053404 -0.186377
v -0.647210 -0.022794 -0.119099
v -0.649459 -0.112795 0.195896
v -0.649459 -0.022794 0.195896
v -0.646666 0.053405 -0.195299
v -0.649459 -0.022794 0.195896
v -0.649459 0.053408 0.195896
v -0.647210 -0.022794 -0.119099
v -0.646667 -0.022792 -0.195297
v 0.603302 0.053404 -0.186377
v 0.600510 0.131643 0.204818
v 0.600510 0.053406 0.204818
v 0.602758 -0.022795 -0.110178
v 0.600510 -0.022795 0.204818
v 0.600510 -0.112796 0.204818
v 0.600510 -0.022795 0.204818
v 0.603302 0.053404 -0.186377
v 0.600510 0.053406 0.204818
v 0.602758 -0.022795 -0.110178
v 0.603302 -0.022794 -0.186376
v -0.646666 0.053405 -0.195299
v -0.649459 0.053408 0.195896
v -0.649459 0.131644 0.195896
vn -0.007137 -0.000000 0.999975
vn -0.007137 -0.000000 0.999975
vn -0.007137 -0.000000 0.999975
vn -0.007137 -0.000000 0.999975
vn -0.007137 -0.000000 0.999975
vn -0.007137 -0.000000 0.999975
vn -0.007137 -0.000000 0.999975
vn -0.007137 -0.000000 0.999975
vn 0.001401 0.980582 -0.196106
vn 0.001401 0.980582 -0.196106
vn 0.001401 0.980582 -0.196106
vn 0.001401 0.980582 -0.196106
vn -0.999975 0.000000 -0.007137
vn -0.999975 0.000000 -0.007137
vn -0.999975 0.000000 -0.007137
vn -0.999975 0.000001 -0.007137
vn -0.999975 0.000001 -0.007137
vn -0.999975 0.000001 -0.007137
vn -0.999975 0.000001 -0.007137
vn -0.999975 0.000001 -0.007137
vn 0.999975 0.000001 0.007137
vn 0.999975 0.000001 0.007137
vn 0.999975 0.000001 0.007137
vn 0.999975 0.000000 0.007137
vn 0.999975 0.000000 0.007137
vn 0.999975 0.000000 0.007137
vn 0.999975 -0.000001 0.007137
vn 0.999975 -0.000001 0.007137
vn 0.999975 -0.000001 0.007137
vn 0.999975 -0.000001 0.007137
vn 0.999975 -0.000001 0.007137
vn -0.999975 -0.000001 -0.007137
vn -0.999975 -0.000001 -0.007137
vn -0.999975 -0.000001 -0.007137
vt 23.699057 -0.897441
vt -25.513542 -4.440752
vt 23.699057 -4.440800
vt -25.513542 -0.897393
vt 23.699060 2.102617
vt -25.513539 2.102665
vt 23.699057 5.182797
vt -25.513542 5.182846
vt -23.699095 8.757738
vt 25.513576 -6.948792
vt 25.513503 8.757984
vt -23.699023 -6.949038
vt -4.506967 -0.897393
vt 7.894750 -4.440752
vt 7.894750 -0.897393
vt -7.507027 2.102539
vt 7.894749 -0.897420
vt 7.894750 2.102638
vt -4.506968 -0.897420
vt -7.506967 -0.897365
vt 7.507026 2.102496
vt -7.894750 5.182775
vt -7.894751 2.102594
vt 4.506967 -0.897441
vt -7.894750 -0.897441
vt -7.894750 -4.440800
vt -7.894750 -0.897416
vt 7.507026 2.102543
vt -7.894751 2.102642
vt 4.506967 -0.897416
vt 7.506966 -0.897362
vt -7.507026 2.102591
vt 7.894751 2.102689
vt 7.894750 5.182870
f 1/1/1 2/2/2 3/3/3
f 2/2/2 1/1/1 4/4/4
f 4/4/4 1/1/1 5/5/5
f 4/4/4 5/5/5 6/6/6
f 6/6/6 5/5/5 7/7/7
f 6/6/6 7/7/7 8/8/8
f 9/9/9 10/10/10 11/11/11
f 10/10/10 9/9/9 12/12/12
f 13/13/13 14/14/14 15/15/15
f 16/16/16 17/17/17 18/18/18
f 17/17/17 16/16/16 19/19/19
f 19/19/19 16/16/16 20/20/20
f 21/21/21 22/22/22 23/23/23
f 24/24/24 25/25/25 26/26/26
f 27/27/27 28/28/28 29/29/29
f 28/28/28 27/27/27 30/30/30
f 28/28/28 30/30/30 31/31/31
f 32/32/32 33/33/33 34/34/34

g consoleBare-SKP--Charcoal
usemtl Charcoal
v -0.646667 -0.022792 -0.195297
v 0.603302 0.053404 -0.186377
v 0.603302 -0.022794 -0.186376
v -0.646666 0.053405 -0.195299
v -0.646667 -0.022792 -0.195297
v 0.602758 -0.022795 -0.110178
v -0.647210 -0.022794 -0.119099
v 0.603302 -0.022794 -0.186376
v -0.647210 -0.022794 -0.119099
v 0.600510 -0.112796 0.204818
v -0.649459 -0.112795 0.195896
v 0.602758 -0.022795 -0.110178
vn 0.007137 -0.000020 -0.999975
vn 0.007137 -0.000020 -0.999975
vn 0.007137 -0.000020 -0.999975
vn 0.007137 -0.000020 -0.999975
vn -0.000001 -1.000000 -0.000018
vn -0.000001 -1.000000 -0.000018
vn -0.000001 -1.000000 -0.000018
vn -0.000001 -1.000000 -0.000018
vn 0.001960 -0.961524 -0.274715
vn 0.001960 -0.961524 -0.274715
vn 0.001960 -0.961524 -0.274715
vn 0.001960 -0.961524 -0.274715
vt 25.513542 -0.897188
vt -23.699060 2.102669
vt -23.699056 -0.897236
vt 25.513539 2.102717
vt 25.459313 7.688853
vt -23.730621 4.337692
vt 25.480724 4.688931
vt -23.752032 7.337614
vt 25.513526 4.087106
vt -23.699030 -8.811052
vt 25.513569 -8.810877
vt -23.699072 4.086931
f 35/35/35 36/36/36 37/37/37
f 36/36/36 35/35/35 38/38/38
f 39/39/39 40/40/40 41/41/41
f 40/40/40 39/39/39 42/42/42
f 43/43/43 44/44/44 45/45/45
f 44/44/44 43/43/43 46/46/46

