mtllib scaletab.mtl
o scaletab.obj
v -0.148157 0.851843 -0.148157
v 0.148157 0.851843 -0.148157
v -0.148157 1.148157 -0.148157
v 0.148157 1.148157 -0.148157
v -0.148157 0.851843 0.148157
v 0.148157 0.851843 0.148157
v -0.148157 1.148157 0.148157
v 0.148157 1.148157 0.148157
vn -0.577350 -0.577350 -0.577350
vn 0.577350 -0.577350 -0.577350
vn -0.577350 0.577350 -0.577350
vn 0.577350 0.577350 -0.577350
vn -0.577350 -0.577350 0.577350
vn 0.577350 -0.577350 0.577350
vn -0.577350 0.577350 0.577350
vn 0.577350 0.577350 0.577350
vt 0.000000 0.000000
vt 0.000000 0.000000
vt 0.000000 0.000000
vt 0.000000 0.000000
vt 0.000000 0.000000
vt 0.000000 0.000000
vt 0.000000 0.000000
vt 0.000000 0.000000
g Cube
usemtl Default
f 4/1/4 2/2/2 1/3/1 3/4/3 
f 6/5/6 8/6/8 7/7/7 5/8/5 
f 6/5/6 5/8/5 1/3/1 2/2/2 
f 8/6/8 6/5/6 2/2/2 4/1/4 
f 7/7/7 8/6/8 4/1/4 3/4/3 
f 5/8/5 7/7/7 3/4/3 1/3/1 
