# Blender v2.79 (sub 7) OBJ File: ''
# www.blender.org
mtllib sensor.mtl
o UESN_YorktownClass_Carrier__CVM5__g_90913-LightGray3
v -2.756100 1.316675 -0.597065
v -2.466279 0.155176 -1.296753
v -2.756100 0.117022 -0.597065
v -2.466279 1.316675 -1.296753
v -2.466279 1.316675 -1.296753
v -2.005239 0.215876 -1.897594
v -2.466279 0.155176 -1.296753
v -2.005239 1.316675 -1.897594
v -2.005239 1.316675 -1.897594
v -1.404401 0.294977 -2.358631
v -2.005239 0.215876 -1.897594
v -1.404401 1.316675 -2.358631
v -1.404401 1.316675 -2.358631
v -0.704711 0.387087 -2.648453
v -1.404401 0.294977 -2.358631
v -0.704711 1.316675 -2.648453
v 0.325848 0.449121 3.018078
v 0.046150 1.316675 3.054901
v 0.046150 0.485941 3.054901
v 0.797011 1.316675 2.956047
v 0.797011 0.387087 2.956047
v -0.233548 0.449121 3.018078
v -0.704711 1.316675 2.956047
v -0.704711 0.387087 2.956047
v 0.046150 1.316675 3.054901
v 0.046150 0.485941 3.054901
v -0.704711 0.387087 2.956047
v -1.404401 1.316675 2.666225
v -1.404401 0.294977 2.666225
v -0.704711 1.316675 2.956047
v -1.404401 0.294977 2.666225
v -2.005239 1.316675 2.205185
v -2.005239 0.215876 2.205185
v -1.404401 1.316675 2.666225
v -0.704711 1.316675 -2.648453
v 0.797011 1.316675 -2.648453
v 0.046150 1.316675 -2.747307
v -1.404401 1.316675 -2.358631
v 1.496701 1.316675 -2.358631
v -2.005239 1.316675 -1.897594
v 2.097539 1.316675 -1.897594
v -2.466279 1.316675 -1.296753
v 2.558579 1.316675 -1.296753
v 0.046150 1.316675 -1.145203
v -0.290056 1.316675 -1.100941
v -2.756100 1.316675 -0.597065
v -0.603350 1.316675 -0.971169
v -0.872382 1.316675 -0.764736
v -1.078817 1.316675 -0.495705
v -2.854953 1.316675 0.153797
v -1.208588 1.316675 -0.182411
v -1.252850 1.316675 0.153797
v -2.756100 1.316675 0.904655
v -1.208588 1.316675 0.490002
v -1.078817 1.316675 0.803299
v -0.872382 1.316675 1.072327
v -2.466279 1.316675 1.604347
v -0.603350 1.316675 1.278763
v -0.290056 1.316675 1.408535
v 0.046150 1.316675 1.452797
v 0.382356 1.316675 -1.100941
v 2.848400 1.316675 -0.597065
v 0.695650 1.316675 -0.971169
v 0.964682 1.316675 -0.764736
v 1.171117 1.316675 -0.495705
v 2.947253 1.316675 0.153797
v 1.300888 1.316675 -0.182411
v 1.345150 1.316675 0.153797
v 1.300888 1.316675 0.490002
v 2.848400 1.316675 0.904655
v 1.171117 1.316675 0.803299
v 0.964682 1.316675 1.072327
v 2.558579 1.316675 1.604347
v 0.695650 1.316675 1.278763
v 0.382356 1.316675 1.408535
v -2.005239 1.316675 2.205185
v 2.097539 1.316675 2.205185
v -1.404401 1.316675 2.666225
v 1.496701 1.316675 2.666225
v -0.704711 1.316675 2.956047
v 0.797011 1.316675 2.956047
v 0.046150 1.316675 3.054901
v -2.005239 0.215876 2.205185
v -2.466279 1.316675 1.604347
v -2.466279 0.155176 1.604347
v -2.005239 1.316675 2.205185
v -2.466279 0.155176 1.604347
v -2.756100 1.316675 0.904655
v -2.756100 0.117022 0.904655
v -2.466279 1.316675 1.604347
v -2.756100 0.117022 0.904655
v -2.854953 1.316675 0.153797
v -2.854953 0.104006 0.153797
v -2.756100 1.316675 0.904655
v -2.854953 1.316675 0.153797
v -2.756100 0.117022 -0.597065
v -2.854953 0.104006 0.153797
v -2.756100 1.316675 -0.597065
v 2.848400 1.316675 0.904655
v 2.558579 0.155176 1.604347
v 2.848400 0.117022 0.904655
v 2.558579 1.316675 1.604347
v -0.704711 1.316675 -2.648453
v -0.233548 0.449121 -2.710484
v -0.704711 0.387087 -2.648453
v 0.046150 1.316675 -2.747307
v 0.046150 0.485941 -2.747307
v 0.046150 1.316675 -2.747307
v 0.325848 0.449121 -2.710484
v 0.046150 0.485941 -2.747307
v 0.797011 1.316675 -2.648453
v 0.797011 0.387087 -2.648453
v 0.797011 1.316675 -2.648453
v 1.496701 0.294977 -2.358631
v 0.797011 0.387087 -2.648453
v 1.496701 1.316675 -2.358631
v 1.496701 1.316675 -2.358631
v 2.097539 0.215876 -1.897594
v 1.496701 0.294977 -2.358631
v 2.097539 1.316675 -1.897594
v 2.097539 0.215876 -1.897594
v 2.558579 1.316675 -1.296753
v 2.558579 0.155176 -1.296753
v 2.097539 1.316675 -1.897594
v 2.947253 1.316675 0.153797
v 2.848400 0.117022 0.904655
v 2.947253 0.104006 0.153797
v 2.848400 1.316675 0.904655
v 2.558579 0.155176 -1.296753
v 2.848400 1.316675 -0.597065
v 2.848400 0.117022 -0.597065
v 2.558579 1.316675 -1.296753
v 2.848400 0.117022 -0.597065
v 2.947253 1.316675 0.153797
v 2.947253 0.104006 0.153797
v 2.848400 1.316675 -0.597065
v 2.558579 1.316675 1.604347
v 2.097539 0.215876 2.205185
v 2.558579 0.155176 1.604347
v 2.097539 1.316675 2.205185
v 2.097539 0.215876 2.205185
v 1.496701 1.316675 2.666225
v 1.496701 0.294977 2.666225
v 2.097539 1.316675 2.205185
v 1.496701 0.294977 2.666225
v 0.797011 1.316675 2.956047
v 0.797011 0.387087 2.956047
v 1.496701 1.316675 2.666225
vt -14.969981 584.402832
vt -23.003687 572.081848
vt -14.969981 571.677063
vt -23.003687 584.402832
vt -92.911552 584.402832
vt -100.945251 572.725708
vt -92.911552 572.081848
vt -100.945251 584.402832
vt -164.247604 584.402832
vt -172.281311 573.564819
vt -164.247604 572.725708
vt -172.281311 584.402832
vt -224.116714 584.402832
vt -232.150421 574.541931
vt -224.116714 573.564819
vt -232.150421 584.402832
vt 271.431488 575.199951
vt 268.438904 584.402832
vt 268.438904 575.590576
vt 276.472626 584.402832
vt 276.472626 574.541931
vt 299.234802 575.199951
vt 294.193695 584.402832
vt 294.193695 574.541931
vt 302.227386 584.402832
vt 302.227386 575.590576
vt 307.659607 574.541931
vt 299.625916 584.402832
vt 299.625916 573.564819
vt 307.659607 584.402832
vt 292.399078 573.564819
vt 284.365387 584.402832
vt 284.365387 572.725708
vt 292.399078 584.402832
vt 68.931808 279.830292
vt 68.931808 295.760254
vt 67.883202 287.795288
vt 72.006180 272.408112
vt 72.006180 303.182434
vt 76.896790 266.034546
vt 76.896790 309.556000
vt 83.270355 261.143951
vt 83.270355 314.446594
vt 84.877975 287.795288
vt 85.347504 284.228882
vt 90.692528 258.069580
vt 86.724083 280.905518
vt 88.913910 278.051666
vt 91.767738 275.861847
vt 98.657509 257.020966
vt 95.091103 274.485260
vt 98.657509 274.015747
vt 106.622482 258.069580
vt 102.223907 274.485260
vt 105.547272 275.861847
vt 108.401100 278.051666
vt 114.044655 261.143951
vt 110.590927 280.905518
vt 111.967506 284.228882
vt 112.437035 287.795288
vt 85.347504 291.361694
vt 90.692528 317.520966
vt 86.724083 294.685028
vt 88.913910 297.538879
vt 91.767738 299.728699
vt 98.657509 318.569580
vt 95.091103 301.105286
vt 98.657509 301.574799
vt 102.223907 301.105286
vt 106.622482 317.520966
vt 105.547272 299.728699
vt 108.401100 297.538879
vt 114.044655 314.446594
vt 110.590927 294.685028
vt 111.967506 291.361694
vt 120.418228 266.034546
vt 120.418228 309.556000
vt 125.308838 272.408112
vt 125.308838 303.182434
vt 128.383209 279.830292
vt 128.383209 295.760254
vt 129.431808 287.795288
vt 257.485779 572.725708
vt 249.452072 584.402832
vt 249.452072 572.081848
vt 257.485779 584.402832
vt 205.298981 572.081848
vt 197.265274 584.402832
vt 197.265274 571.677063
vt 205.298981 584.402832
vt 139.395157 571.677063
vt 131.361450 584.402832
vt 131.361450 571.539062
vt 139.395157 584.402832
vt 64.265511 584.402832
vt 56.231804 571.677063
vt 64.265511 571.539062
vt 56.231804 584.402832
vt 23.003687 584.402832
vt 14.969981 572.081848
vt 23.003687 571.677063
vt 14.969981 584.402832
vt -268.438904 584.402832
vt -273.480011 575.199951
vt -268.438904 574.541931
vt -276.472626 584.402832
vt -276.472626 575.590576
vt -294.193695 584.402832
vt -297.186279 575.199951
vt -294.193695 575.590576
vt -302.227386 584.402832
vt -302.227386 574.541931
vt -299.625916 584.402832
vt -307.659607 573.564819
vt -299.625916 574.541931
vt -307.659607 584.402832
vt -284.365387 584.402832
vt -292.399078 572.725708
vt -284.365387 573.564819
vt -292.399078 584.402832
vt -249.452072 572.725708
vt -257.485779 584.402832
vt -257.485779 572.081848
vt -249.452072 584.402832
vt -56.231804 584.402832
vt -64.265511 571.677063
vt -56.231804 571.539062
vt -64.265511 584.402832
vt -197.265274 572.081848
vt -205.298981 584.402832
vt -205.298981 571.677063
vt -197.265274 584.402832
vt -131.361450 571.677063
vt -139.395157 584.402832
vt -139.395157 571.539062
vt -131.361450 584.402832
vt 100.945251 584.402832
vt 92.911552 572.725708
vt 100.945251 572.081848
vt 92.911552 584.402832
vt 172.281311 572.725708
vt 164.247604 584.402832
vt 164.247604 573.564819
vt 172.281311 584.402832
vt 232.150421 573.564819
vt 224.116714 584.402832
vt 224.116714 574.541931
vt 232.150421 584.402832
vn -0.9239 0.0000 -0.3827
vn -0.7934 0.0000 -0.6088
vn -0.6088 0.0000 -0.7934
vn -0.3827 0.0000 -0.9239
vn 0.1305 0.0000 0.9914
vn -0.1305 0.0000 0.9914
vn -0.3827 0.0000 0.9239
vn -0.6088 0.0000 0.7934
vn 0.0000 1.0000 -0.0000
vn -0.7934 0.0000 0.6088
vn -0.9239 0.0000 0.3827
vn -0.9914 0.0000 0.1305
vn -0.9914 0.0000 -0.1305
vn 0.9239 0.0000 0.3827
vn -0.1305 0.0000 -0.9914
vn 0.1305 0.0000 -0.9914
vn 0.3827 0.0000 -0.9239
vn 0.6088 0.0000 -0.7934
vn 0.7934 0.0000 -0.6088
vn 0.9914 0.0000 0.1305
vn 0.9239 0.0000 -0.3827
vn 0.9914 0.0000 -0.1305
vn 0.7934 0.0000 0.6088
vn 0.6088 0.0000 0.7934
vn 0.3827 0.0000 0.9239
usemtl LightGray3
s 1
f 1/1/1 2/2/1 3/3/1
f 2/2/1 1/1/1 4/4/1
f 5/5/2 6/6/2 7/7/2
f 6/6/2 5/5/2 8/8/2
f 9/9/3 10/10/3 11/11/3
f 10/10/3 9/9/3 12/12/3
f 13/13/4 14/14/4 15/15/4
f 14/14/4 13/13/4 16/16/4
f 17/17/5 18/18/5 19/19/5
f 18/18/5 17/17/5 20/20/5
f 20/20/5 17/17/5 21/21/5
f 22/22/6 23/23/6 24/24/6
f 23/23/6 22/22/6 25/25/6
f 25/25/6 22/22/6 26/26/6
f 27/27/7 28/28/7 29/29/7
f 28/28/7 27/27/7 30/30/7
f 31/31/8 32/32/8 33/33/8
f 32/32/8 31/31/8 34/34/8
f 35/35/9 36/36/9 37/37/9
f 36/36/9 35/35/9 38/38/9
f 36/36/9 38/38/9 39/39/9
f 39/39/9 38/38/9 40/40/9
f 39/39/9 40/40/9 41/41/9
f 41/41/9 40/40/9 42/42/9
f 41/41/9 42/42/9 43/43/9
f 43/43/9 42/42/9 44/44/9
f 44/44/9 42/42/9 45/45/9
f 45/45/9 42/42/9 46/46/9
f 45/45/9 46/46/9 47/47/9
f 47/47/9 46/46/9 48/48/9
f 48/48/9 46/46/9 49/49/9
f 49/49/9 46/46/9 50/50/9
f 49/49/9 50/50/9 51/51/9
f 51/51/9 50/50/9 52/52/9
f 52/52/9 50/50/9 53/53/9
f 52/52/9 53/53/9 54/54/9
f 54/54/9 53/53/9 55/55/9
f 55/55/9 53/53/9 56/56/9
f 56/56/9 53/53/9 57/57/9
f 56/56/9 57/57/9 58/58/9
f 58/58/9 57/57/9 59/59/9
f 59/59/9 57/57/9 60/60/9
f 43/43/9 61/61/9 62/62/9
f 61/61/9 43/43/9 44/44/9
f 62/62/9 61/61/9 63/63/9
f 62/62/9 63/63/9 64/64/9
f 62/62/9 64/64/9 65/65/9
f 62/62/9 65/65/9 66/66/9
f 66/66/9 65/65/9 67/67/9
f 66/66/9 67/67/9 68/68/9
f 66/66/9 68/68/9 69/69/9
f 66/66/9 69/69/9 70/70/9
f 70/70/9 69/69/9 71/71/9
f 70/70/9 71/71/9 72/72/9
f 70/70/9 72/72/9 73/73/9
f 73/73/9 72/72/9 74/74/9
f 73/73/9 74/74/9 75/75/9
f 73/73/9 75/75/9 60/60/9
f 73/73/9 60/60/9 57/57/9
f 73/73/9 57/57/9 76/76/9
f 73/73/9 76/76/9 77/77/9
f 77/77/9 76/76/9 78/78/9
f 77/77/9 78/78/9 79/79/9
f 79/79/9 78/78/9 80/80/9
f 79/79/9 80/80/9 81/81/9
f 81/81/9 80/80/9 82/82/9
f 83/83/10 84/84/10 85/85/10
f 84/84/10 83/83/10 86/86/10
f 87/87/11 88/88/11 89/89/11
f 88/88/11 87/87/11 90/90/11
f 91/91/12 92/92/12 93/93/12
f 92/92/12 91/91/12 94/94/12
f 95/95/13 96/96/13 97/97/13
f 96/96/13 95/95/13 98/98/13
f 99/99/14 100/100/14 101/101/14
f 100/100/14 99/99/14 102/102/14
f 103/103/15 104/104/15 105/105/15
f 104/104/15 103/103/15 106/106/15
f 104/104/15 106/106/15 107/107/15
f 108/108/16 109/109/16 110/110/16
f 109/109/16 108/108/16 111/111/16
f 109/109/16 111/111/16 112/112/16
f 113/113/17 114/114/17 115/115/17
f 114/114/17 113/113/17 116/116/17
f 117/117/18 118/118/18 119/119/18
f 118/118/18 117/117/18 120/120/18
f 121/121/19 122/122/19 123/123/19
f 122/122/19 121/121/19 124/124/19
f 125/125/20 126/126/20 127/127/20
f 126/126/20 125/125/20 128/128/20
f 129/129/21 130/130/21 131/131/21
f 130/130/21 129/129/21 132/132/21
f 133/133/22 134/134/22 135/135/22
f 134/134/22 133/133/22 136/136/22
f 137/137/23 138/138/23 139/139/23
f 138/138/23 137/137/23 140/140/23
f 141/141/24 142/142/24 143/143/24
f 142/142/24 141/141/24 144/144/24
f 145/145/25 146/146/25 147/147/25
f 146/146/25 145/145/25 148/148/25
o UESN_YorktownClass_Carrier__CVM5__g_90913-Burnt_Umber3
v 1.171117 0.901308 0.803299
v 1.300888 1.316675 0.490002
v 1.300888 0.901308 0.490002
v 1.171117 1.316675 0.803299
v 0.964682 0.901308 -0.764736
v 0.695650 1.316675 -0.971169
v 0.695650 0.901308 -0.971169
v 0.964682 1.316675 -0.764736
v -1.078817 1.316675 -0.495705
v -1.208588 0.901308 -0.182411
v -1.078817 0.901308 -0.495705
v -1.208588 1.316675 -0.182411
v 1.300888 0.901308 0.490002
v 1.345150 1.316675 0.153797
v 1.345150 0.901308 0.153797
v 1.300888 1.316675 0.490002
v 0.046150 0.901308 -1.145203
v -0.290056 1.316675 -1.100941
v -0.290056 0.901308 -1.100941
v 0.046150 1.316675 -1.145203
v -0.290056 1.316675 1.408535
v 0.046150 0.901308 1.452797
v -0.290056 0.901308 1.408535
v 0.046150 1.316675 1.452797
v 0.046150 1.316675 1.452797
v 0.382356 0.901308 1.408535
v 0.046150 0.901308 1.452797
v 0.382356 1.316675 1.408535
v 0.382356 1.316675 1.408535
v 0.695650 0.901308 1.278763
v 0.382356 0.901308 1.408535
v 0.695650 1.316675 1.278763
v 0.382356 0.901308 -1.100941
v 0.046150 1.316675 -1.145203
v 0.046150 0.901308 -1.145203
v 0.382356 1.316675 -1.100941
v -0.290056 0.901308 -1.100941
v -0.603350 1.316675 -0.971169
v -0.603350 0.901308 -0.971169
v -0.290056 1.316675 -1.100941
v 1.300888 1.316675 -0.182411
v 1.171117 0.901308 -0.495705
v 1.300888 0.901308 -0.182411
v 1.171117 1.316675 -0.495705
v 0.695650 0.901308 -0.971169
v 0.382356 1.316675 -1.100941
v 0.382356 0.901308 -1.100941
v 0.695650 1.316675 -0.971169
v -0.603350 0.901308 -0.971169
v -0.872382 1.316675 -0.764736
v -0.872382 0.901308 -0.764736
v -0.603350 1.316675 -0.971169
v -1.208588 0.901308 0.490002
v -1.078817 1.316675 0.803299
v -1.078817 0.901308 0.803299
v -1.208588 1.316675 0.490002
v -1.078817 0.901308 0.803299
v -0.872382 1.316675 1.072327
v -0.872382 0.901308 1.072327
v -1.078817 1.316675 0.803299
v 0.695650 1.316675 1.278763
v 0.964682 0.901308 1.072327
v 0.695650 0.901308 1.278763
v 0.964682 1.316675 1.072327
v 1.171117 1.316675 -0.495705
v 0.964682 0.901308 -0.764736
v 1.171117 0.901308 -0.495705
v 0.964682 1.316675 -0.764736
v -1.208588 1.316675 -0.182411
v -1.252850 0.901308 0.153797
v -1.208588 0.901308 -0.182411
v -1.252850 1.316675 0.153797
v -1.252850 1.316675 0.153797
v -1.208588 0.901308 0.490002
v -1.252850 0.901308 0.153797
v -1.208588 1.316675 0.490002
v -0.872382 1.316675 -0.764736
v -1.078817 0.901308 -0.495705
v -0.872382 0.901308 -0.764736
v -1.078817 1.316675 -0.495705
v 1.345150 1.316675 0.153797
v 1.300888 0.901308 -0.182411
v 1.345150 0.901308 0.153797
v 1.300888 1.316675 -0.182411
v -0.872382 1.316675 1.072327
v -0.603350 0.901308 1.278763
v -0.872382 0.901308 1.072327
v -0.603350 1.316675 1.278763
v -0.603350 1.316675 1.278763
v -0.290056 0.901308 1.408535
v -0.603350 0.901308 1.278763
v -0.290056 1.316675 1.408535
v 0.964682 0.901308 1.072327
v 1.171117 1.316675 0.803299
v 1.171117 0.901308 0.803299
v 0.964682 1.316675 1.072327
vt -17.188244 579.996704
vt -20.785423 584.402832
vt -20.785423 579.996704
vt -17.188244 584.402832
vt 290.180817 579.996704
vt 286.583649 584.402832
vt 286.583649 579.996704
vt 290.180817 584.402832
vt 20.785423 584.402832
vt 17.188244 579.996704
vt 20.785423 579.996704
vt 17.188244 584.402832
vt 62.047245 579.996704
vt 58.450066 584.402832
vt 58.450066 579.996704
vt 62.047245 584.402832
vt 274.254333 579.996704
vt 270.657166 584.402832
vt 270.657166 579.996704
vt 274.254333 584.402832
vt -296.411957 584.402832
vt -300.009125 579.996704
vt -296.411957 579.996704
vt -300.009125 584.402832
vt -270.657166 584.402832
vt -274.254333 579.996704
vt -270.657166 579.996704
vt -274.254333 584.402832
vt -226.334976 584.402832
vt -229.932159 579.996704
vt -226.334976 579.996704
vt -229.932159 584.402832
vt 300.009125 579.996704
vt 296.411957 584.402832
vt 296.411957 579.996704
vt 300.009125 584.402832
vt 229.932159 579.996704
vt 226.334976 584.402832
vt 226.334976 579.996704
vt 229.932159 584.402832
vt 203.080719 584.402832
vt 199.483551 579.996704
vt 203.080719 579.996704
vt 199.483551 584.402832
vt 305.441345 579.996704
vt 301.844177 584.402832
vt 301.844177 579.996704
vt 305.441345 584.402832
vt 170.063049 579.996704
vt 166.465866 584.402832
vt 166.465866 579.996704
vt 170.063049 584.402832
vt -199.483551 579.996704
vt -203.080719 584.402832
vt -203.080719 579.996704
vt -199.483551 584.402832
vt -251.670334 579.996704
vt -255.267517 584.402832
vt -255.267517 579.996704
vt -251.670334 584.402832
vt -166.465866 584.402832
vt -170.063049 579.996704
vt -166.465866 579.996704
vt -170.063049 584.402832
vt 255.267517 584.402832
vt 251.670334 579.996704
vt 255.267517 579.996704
vt 251.670334 584.402832
vt -58.450066 584.402832
vt -62.047245 579.996704
vt -58.450066 579.996704
vt -62.047245 584.402832
vt -133.579712 584.402832
vt -137.176895 579.996704
vt -133.579712 579.996704
vt -137.176895 584.402832
vt 98.726990 584.402832
vt 95.129814 579.996704
vt 98.726990 579.996704
vt 95.129814 584.402832
vt 137.176895 584.402832
vt 133.579712 579.996704
vt 137.176895 579.996704
vt 133.579712 584.402832
vt -286.583649 584.402832
vt -290.180817 579.996704
vt -286.583649 579.996704
vt -290.180817 584.402832
vt -301.844177 584.402832
vt -305.441345 579.996704
vt -301.844177 579.996704
vt -305.441345 584.402832
vt -95.129814 579.996704
vt -98.726990 584.402832
vt -98.726990 579.996704
vt -95.129814 584.402832
vn -0.9239 0.0000 -0.3827
vn -0.6088 0.0000 0.7934
vn 0.9239 0.0000 0.3827
vn -0.9914 0.0000 -0.1305
vn 0.1305 0.0000 0.9914
vn 0.1305 0.0000 -0.9914
vn -0.1305 0.0000 -0.9914
vn -0.3827 0.0000 -0.9239
vn -0.1305 0.0000 0.9914
vn 0.3827 0.0000 0.9239
vn -0.9239 0.0000 0.3827
vn -0.3827 0.0000 0.9239
vn 0.6088 0.0000 0.7934
vn 0.9239 0.0000 -0.3827
vn 0.7933 0.0000 -0.6088
vn -0.6088 0.0000 -0.7934
vn -0.7934 0.0000 0.6088
vn 0.9914 0.0000 0.1305
vn 0.9914 0.0000 -0.1305
vn 0.7934 0.0000 0.6088
vn -0.9914 0.0000 0.1305
vn 0.6088 0.0000 -0.7934
vn 0.3827 0.0000 -0.9239
vn -0.7933 0.0000 -0.6088
usemtl Burnt_Umber3
s 1
f 149/149/26 150/150/26 151/151/26
f 150/150/26 149/149/26 152/152/26
f 153/153/27 154/154/27 155/155/27
f 154/154/27 153/153/27 156/156/27
f 157/157/28 158/158/28 159/159/28
f 158/158/28 157/157/28 160/160/28
f 161/161/29 162/162/29 163/163/29
f 162/162/29 161/161/29 164/164/29
f 165/165/30 166/166/30 167/167/30
f 166/166/30 165/165/30 168/168/30
f 169/169/31 170/170/31 171/171/31
f 170/170/31 169/169/31 172/172/31
f 173/173/32 174/174/32 175/175/32
f 174/174/32 173/173/32 176/176/32
f 177/177/33 178/178/33 179/179/33
f 178/178/33 177/177/33 180/180/33
f 181/181/34 182/182/34 183/183/34
f 182/182/34 181/181/34 184/184/34
f 185/185/35 186/186/35 187/187/35
f 186/186/35 185/185/35 188/188/35
f 189/189/36 190/190/36 191/191/36
f 190/190/36 189/189/36 192/192/36
f 193/193/37 194/194/37 195/195/37
f 194/194/37 193/193/37 196/196/37
f 197/197/38 198/198/38 199/199/38
f 198/198/38 197/197/38 200/200/38
f 201/201/39 202/202/39 203/203/39
f 202/202/39 201/201/39 204/204/39
f 205/205/40 206/206/40 207/207/40
f 206/206/40 205/205/40 208/208/40
f 209/209/41 210/210/41 211/211/41
f 210/210/41 209/209/41 212/212/41
f 213/213/42 214/214/42 215/215/42
f 214/214/42 213/213/42 216/216/42
f 217/217/43 218/218/43 219/219/43
f 218/218/43 217/217/43 220/220/43
f 221/221/44 222/222/44 223/223/44
f 222/222/44 221/221/44 224/224/44
f 225/225/45 226/226/45 227/227/45
f 226/226/45 225/225/45 228/228/45
f 229/229/46 230/230/46 231/231/46
f 230/230/46 229/229/46 232/232/46
f 233/233/47 234/234/47 235/235/47
f 234/234/47 233/233/47 236/236/47
f 237/237/48 238/238/48 239/239/48
f 238/238/48 237/237/48 240/240/48
f 241/241/49 242/242/49 243/243/49
f 242/242/49 241/241/49 244/244/49
