# Alias OBJ Model File
# Exported from SketchUp, (c) 2000-2006 Google, Inc.
# File units = inches

mtllib disk.mtl

g Mesh1 Model

usemtl FrontColor
v -0.25 -0.433013 0
vt 0.25 -0.433013
vn 0 0 -1
v -0.353553 -0.353553 0
vt 0.353553 -0.353553
v -0.433013 -0.25 0
vt 0.433013 -0.25
v -0.482963 -0.12941 0
vt 0.482963 -0.12941
v -0.5 3.06162e-017 0
vt 0.5 3.06162e-017
v -0.482963 0.12941 0
vt 0.482963 0.12941
v -0.433013 0.25 0
vt 0.433013 0.25
v -0.353553 0.353553 0
vt 0.353553 0.353553
v -0.25 0.433013 0
vt 0.25 0.433013
v -0.12941 0.482963 0
vt 0.12941 0.482963
v 0 0.5 0
vt 0 0.5
v 0.12941 0.482963 0
vt -0.12941 0.482963
v 0.25 0.433013 0
vt -0.25 0.433013
v 0.353553 0.353553 0
vt -0.353553 0.353553
v 0.433013 0.25 0
vt -0.433013 0.25
v 0.482963 0.12941 0
vt -0.482963 0.12941
v 0.5 -9.18485e-017 0
vt -0.5 -9.18485e-017
v 0.482963 -0.12941 0
vt -0.482963 -0.12941
v 0.433013 -0.25 0
vt -0.433013 -0.25
v 0.353553 -0.353553 0
vt -0.353553 -0.353553
v 0.25 -0.433013 0
vt -0.25 -0.433013
v 0.12941 -0.482963 0
vt -0.12941 -0.482963
v -6.12323e-017 -0.5 0
vt 6.12323e-017 -0.5
v -0.12941 -0.482963 0
vt 0.12941 -0.482963
f 1/1/1 2/2/1 3/3/1 4/4/1 5/5/1 6/6/1 7/7/1 8/8/1 9/9/1 10/10/1 11/11/1 12/12/1 13/13/1 14/14/1 15/15/1 16/16/1 17/17/1 18/18/1 19/19/1 20/20/1 21/21/1 22/22/1 23/23/1 24/24/1 

vt -0.0652631 0
vn -0.707107 -0.707107 0
vt 0.0652631 0
vn -0.5 -0.866025 0
v -0.25 -0.433013 0.119375
vt 0.0652631 0.119375
v -0.353553 -0.353553 0.119375
vt -0.0652631 0.119375
f 2/25/2 1/26/3 25/27/3 26/28/2 

vt -0.0652631 0
vt 0.0652631 0
vn -0.258819 -0.965926 0
v -0.12941 -0.482963 0.119375
vt 0.0652631 0.119375
vt -0.0652631 0.119375
f 1/29/3 24/30/4 27/31/4 25/32/3 

vt -0.0652631 0
vt 0.0652631 0
vn -3.21943e-016 -1 0
v -6.12323e-017 -0.5 0.119375
vt 0.0652631 0.119375
vt -0.0652631 0.119375
f 24/33/4 23/34/5 28/35/5 27/36/4 

vt -0.0652631 0
vt 0.0652631 0
vn 0.258819 -0.965926 0
v 0.12941 -0.482963 0.119375
vt 0.0652631 0.119375
vt -0.0652631 0.119375
f 23/37/5 22/38/6 29/39/6 28/40/5 

vt -0.0652631 0
vn 0.5 -0.866025 0
v 0.25 -0.433013 0.119375
vt -0.0652631 0.119375
f 22/41/6 21/30/7 30/31/7 29/42/6 

vt 0.0652631 0
vn 0.707107 -0.707107 0
v 0.353553 -0.353553 0.119375
vt 0.0652631 0.119375
f 21/33/7 20/43/8 31/44/8 30/36/7 

vt -0.0652631 0
vt 0.0652631 0
vn 0.866025 -0.5 0
v 0.433013 -0.25 0.119375
vt 0.0652631 0.119375
vt -0.0652631 0.119375
f 20/45/8 19/46/9 32/47/9 31/48/8 

vt -0.0652631 0
vt 0.0652631 0
vn 0.965926 -0.258819 0
v 0.482963 -0.12941 0.119375
vt 0.0652631 0.119375
vt -0.0652631 0.119375
f 19/49/9 18/50/10 33/51/10 32/52/9 

vt -0.0652631 0
vt 0.0652631 0
vn 1 -4.33924e-016 0
v 0.5 -9.18485e-017 0.119375
vt 0.0652631 0.119375
vt -0.0652631 0.119375
f 18/53/10 17/54/11 34/55/11 33/56/10 

vt -0.0652631 0
vn 0.965926 0.258819 0
v 0.482963 0.12941 0.119375
vt -0.0652631 0.119375
f 17/57/11 16/30/12 35/31/12 34/58/11 

vt -0.0652631 0
vt 0.0652631 0
vn 0.866025 0.5 0
v 0.433013 0.25 0.119375
vt 0.0652631 0.119375
vt -0.0652631 0.119375
f 16/59/12 15/60/13 36/61/13 35/62/12 

vt -0.0652631 0
vt 0.0652631 0
vn 0.707107 0.707107 0
v 0.353553 0.353553 0.119375
vt 0.0652631 0.119375
vt -0.0652631 0.119375
f 15/63/13 14/64/14 37/65/14 36/66/13 

vt 0.0652631 0
vn 0.5 0.866025 0
v 0.25 0.433013 0.119375
vt 0.0652631 0.119375
f 14/57/14 13/67/15 38/68/15 37/58/14 

vt -0.0652631 0
vn 0.258819 0.965926 0
v 0.12941 0.482963 0.119375
vt -0.0652631 0.119375
f 13/69/15 12/50/16 39/51/16 38/70/15 

vt -0.0652631 0
vt 0.0652631 0
vn 2.09963e-016 1 0
v 0 0.5 0.119375
vt 0.0652631 0.119375
vt -0.0652631 0.119375
f 12/71/16 11/72/17 40/73/17 39/74/16 

vt -0.0652631 0
vn -0.258819 0.965926 0
v -0.12941 0.482963 0.119375
vt -0.0652631 0.119375
f 11/75/17 10/46/18 41/47/18 40/76/17 

vn -0.5 0.866025 0
v -0.25 0.433013 0.119375
f 10/59/18 9/46/19 42/47/19 41/62/18 

vn -0.707107 0.707107 0
v -0.353553 0.353553 0.119375
f 9/33/19 8/30/20 43/31/20 42/36/19 

vn -0.866025 0.5 0
v -0.433013 0.25 0.119375
f 8/45/20 7/26/21 44/27/21 43/48/20 

vn -0.965926 0.258819 0
v -0.482963 0.12941 0.119375
f 7/33/21 6/60/22 45/61/22 44/36/21 

vt -0.0652631 0
vt 0.0652631 0
vn -1 1.53973e-016 0
v -0.5 3.06162e-017 0.119375
vt 0.0652631 0.119375
vt -0.0652631 0.119375
f 6/77/22 5/78/23 46/79/23 45/80/22 

vt -0.0652631 0
vt 0.0652631 0
vn -0.965926 -0.258819 0
v -0.482963 -0.12941 0.119375
vt 0.0652631 0.119375
vt -0.0652631 0.119375
f 5/81/23 4/82/24 47/83/24 46/84/23 

vt -0.0652631 0
vn -0.866025 -0.5 0
v -0.433013 -0.25 0.119375
vt -0.0652631 0.119375
f 4/85/24 3/43/25 48/44/25 47/86/24 

vt 0.0652631 0
vt 0.0652631 0.119375
f 3/45/25 2/87/2 26/88/2 48/48/25 

vt -0.353553 -0.353553
vn 0 0 1
vt -0.25 -0.433013
vt -0.12941 -0.482963
vt -6.12323e-017 -0.5
vt 0.12941 -0.482963
vt 0.25 -0.433013
vt 0.353553 -0.353553
vt 0.433013 -0.25
vt 0.482963 -0.12941
vt 0.5 -9.18485e-017
vt 0.482963 0.12941
vt 0.433013 0.25
vt 0.353553 0.353553
vt 0.25 0.433013
vt 0.12941 0.482963
vt -0.12941 0.482963
vt -0.25 0.433013
vt -0.353553 0.353553
vt -0.433013 0.25
vt -0.482963 0.12941
vt -0.5 3.06162e-017
vt -0.482963 -0.12941
vt -0.433013 -0.25
f 26/89/26 25/90/26 27/91/26 28/92/26 29/93/26 30/94/26 31/95/26 32/96/26 33/97/26 34/98/26 35/99/26 36/100/26 37/101/26 38/102/26 39/103/26 40/11/26 41/104/26 42/105/26 43/106/26 44/107/26 45/108/26 46/109/26 47/110/26 48/111/26 

