# Blender v2.79 (sub 7) OBJ File: ''
# www.blender.org
mtllib baydoorshalf.mtl
o UESN_YorktownClass_Carrier__CVM5__g_90913-DimGray
v 6.020308 -1.064886 33.328529
v -0.721896 -0.177248 -33.328529
v 6.020308 -1.064875 -33.328529
v -0.721896 -0.177259 33.328529
v -0.721896 -0.177259 33.328529
v -4.576516 1.419389 -33.328529
v -0.721896 -0.177248 -33.328529
v -4.576516 1.419379 33.328529
vt 817.275391 -282.340576
vt 110.190987 -210.203506
vt 110.190987 -282.340576
vt 817.275391 -210.203506
vt 817.275391 -193.318497
vt 110.190987 -149.060532
vt 110.190987 -193.318497
vt 817.275391 -149.060532
vn -0.1305 -0.9914 -0.0000
vn -0.3827 -0.9239 -0.0000
usemtl DimGray
s 1
f 1/1/1 2/2/1 3/3/1
f 2/2/1 1/1/1 4/4/1
f 5/5/2 6/6/2 7/7/2
f 6/6/2 5/5/2 8/8/2
