# Blender v2.79 (sub 7) OBJ File: ''
# www.blender.org
mtllib baydoorshalfoffset.mtl
o UESN_YorktownClass_Carrier__CVM5__g_90913-DimGray
v 11.318718 -2.484272 33.328529
v 4.576514 -1.596622 -33.328529
v 11.318718 -2.484250 -33.328529
v 4.576514 -1.596644 33.328529
v 4.576514 -1.596644 33.328529
v 0.721894 0.000015 -33.328529
v 4.576514 -1.596622 -33.328529
v 0.721894 -0.000006 33.328529
vt 817.275391 -282.340576
vt 110.190987 -210.203506
vt 110.190987 -282.340576
vt 817.275391 -210.203506
vt 817.275391 -193.318497
vt 110.190987 -149.060532
vt 110.190987 -193.318497
vt 817.275391 -149.060532
vn -0.1305 -0.9914 -0.0000
vn -0.3827 -0.9239 -0.0000
usemtl DimGray
s 1
f 1/1/1 2/2/1 3/3/1
f 2/2/1 1/1/1 4/4/1
f 5/5/2 6/6/2 7/7/2
f 6/6/2 5/5/2 8/8/2
