# Blender v2.79 (sub 7) OBJ File: ''
# www.blender.org
mtllib missile_door.mtl
o UESN_YorktownClass_Carrier__CVM5__g_90913-0044_DarkGoldenrod
v -0.035911 0.764055 -7.404103
v 1.570611 1.996777 7.423485
v 1.570611 1.996782 -7.404103
v -0.035911 0.764053 0.009690
v -0.035911 0.764050 7.423485
v 1.570611 1.996782 -7.404103
v -0.035911 0.021768 -7.404103
v -0.035911 0.764055 -7.404103
v 1.570611 1.254495 -7.404103
v 5.768449 3.735582 -7.404103
v 5.768449 2.993295 -7.404103
v -0.035911 0.021766 0.009690
v -0.035911 0.764055 -7.404103
v -0.035911 0.021768 -7.404103
v -0.035911 0.021764 7.423485
v -0.035911 0.764050 7.423485
v -0.035911 0.764053 0.009690
v 5.768449 3.735582 -7.404103
v 5.768449 2.993293 0.009690
v 5.768449 2.993295 -7.404103
v 5.768449 2.993291 7.423485
v 5.768449 3.735578 7.423485
v 5.768449 3.735580 0.009691
v 1.570611 1.254491 7.423485
v -0.035911 0.764050 7.423485
v -0.035911 0.021764 7.423485
v 1.570611 1.996777 7.423485
v 5.768449 2.993291 7.423485
v 5.768449 3.735578 7.423485
v 1.570611 1.996782 -7.404103
v 5.768449 3.735580 0.009691
v 5.768449 3.735582 -7.404103
v 1.570611 1.996777 7.423485
v 5.768449 3.735578 7.423485
vt 236.029282 424.399628
vt 393.317322 445.880219
vt 236.029282 445.880219
vt 314.673309 424.399628
vt 393.317322 424.399628
vt -143.897644 544.907288
vt -126.855927 523.956726
vt -126.855927 531.830750
vt -143.897644 537.033325
vt -188.427444 563.352173
vt -188.427444 555.478149
vt 314.673309 523.956726
vt 236.029282 531.830750
vt 236.029282 523.956726
vt 393.317322 523.956726
vt 393.317322 531.830750
vt 314.673309 531.830750
vt -236.029282 563.352173
vt -314.673309 555.478149
vt -236.029282 555.478149
vt -393.317322 555.478149
vt -393.317322 563.352173
vt -314.673309 563.352173
vt 143.897644 537.033325
vt 126.855927 531.830750
vt 126.855927 523.956726
vt 143.897644 544.907288
vt 188.427444 555.478149
vt 188.427444 563.352173
vt 236.029282 341.471069
vt 314.673309 389.669800
vt 236.029282 389.669800
vt 393.317322 341.471069
vt 393.317322 389.669800
vn -0.6088 0.7934 0.0000
vn -0.0000 0.0000 -1.0000
vn -1.0000 0.0000 0.0000
vn -1.0000 -0.0002 -0.0004
vn -1.0000 -0.0001 -0.0005
vn 0.1724 0.9471 0.2706
vn 1.0000 -0.0000 -0.0005
vn 1.0000 0.0000 0.0000
vn 1.0000 0.0000 -0.0006
vn 0.9239 -0.2706 -0.2706
vn 0.0000 0.0000 1.0000
vn -0.3827 0.9239 0.0000
usemtl 0044_DarkGoldenrod
s 1
f 1/1/1 2/2/1 3/3/1
f 2/2/1 1/1/1 4/4/1
f 2/2/1 4/4/1 5/5/1
f 6/6/2 7/7/2 8/8/2
f 7/7/2 6/6/2 9/9/2
f 9/9/2 6/6/2 10/10/2
f 9/9/2 10/10/2 11/11/2
f 12/12/3 13/13/4 14/14/3
f 13/13/4 12/12/3 15/15/3
f 13/13/4 15/15/3 16/16/5
f 13/13/4 16/16/5 17/17/6
f 18/18/7 19/19/8 20/20/8
f 19/19/8 18/18/7 21/21/8
f 21/21/8 18/18/7 22/22/9
f 22/22/9 18/18/7 23/23/10
f 24/24/11 25/25/11 26/26/11
f 25/25/11 24/24/11 27/27/11
f 27/27/11 24/24/11 28/28/11
f 27/27/11 28/28/11 29/29/11
f 30/30/12 31/31/12 32/32/12
f 31/31/12 30/30/12 33/33/12
f 31/31/12 33/33/12 34/34/12
