# Blender v2.79 (sub 7) OBJ File: ''
# www.blender.org
mtllib turret_barrel.mtl
o UESN_YorktownClass_Carrier__CVM5__g_13444-Charcoal.001
v -0.086855 -0.890244 20.680361
v -0.304818 -0.861543 0.081929
v -0.304819 -0.861550 20.680361
v -0.086855 -0.890238 0.081928
v 0.131109 -0.861550 20.680361
v -0.086855 -0.890238 0.081928
v -0.086855 -0.890244 20.680361
v 0.131109 -0.861543 0.081929
v -0.394243 1.099090 20.680361
v -0.680683 0.980448 0.081929
v -0.680684 0.980441 20.680361
v -0.394243 1.099097 0.081929
v -0.680684 0.980441 20.680361
v -0.926655 0.791708 0.081929
v -0.926655 0.791701 20.680361
v -0.680683 0.980448 0.081929
v 1.060334 -0.355482 0.081929
v 0.941686 -0.641927 20.680361
v 0.941687 -0.641920 0.081929
v 1.060334 -0.355489 20.680361
v 0.220534 -1.195284 0.081928
v 0.506974 -1.076638 20.680361
v 0.220533 -1.195290 20.680361
v 0.506974 -1.076631 0.081928
v -0.086855 -1.235750 0.081928
v 0.220533 -1.195290 20.680361
v -0.086855 -1.235757 20.680361
v 0.220534 -1.195284 0.081928
v -0.507928 -0.777421 20.680361
v -0.682342 -0.643579 0.081929
v -0.682343 -0.643586 20.680361
v -0.507928 -0.777414 0.081929
v 1.100803 -0.048094 0.081929
v 1.060334 -0.355489 20.680361
v 1.060334 -0.355482 0.081929
v 1.100802 -0.048100 20.680361
v -1.115396 0.545730 20.680361
v -0.926655 0.791708 0.081929
v -1.115396 0.545737 0.081929
v -0.926655 0.791701 20.680361
v 1.060334 0.259299 0.081929
v 1.100802 -0.048100 20.680361
v 1.100803 -0.048094 0.081929
v 1.060334 0.259292 20.680361
v 0.334219 -0.777421 20.680361
v 0.131109 -0.861543 0.081929
v 0.131109 -0.861550 20.680361
v 0.334219 -0.777414 0.081929
v 0.508633 -0.643586 20.680361
v 0.334219 -0.777414 0.081929
v 0.334219 -0.777421 20.680361
v 0.508633 -0.643579 0.081929
v 0.508633 -0.643586 20.680361
v 0.642466 -0.469164 0.081929
v 0.508633 -0.643579 0.081929
v 0.642466 -0.469170 20.680361
v 0.642466 -0.469170 20.680361
v 0.726597 -0.266054 0.081929
v 0.642466 -0.469164 0.081929
v 0.726597 -0.266061 20.680361
v 0.726597 -0.266061 20.680361
v 0.755292 -0.048094 0.081929
v 0.726597 -0.266054 0.081929
v 0.755292 -0.048100 20.680361
v 0.755292 -0.048100 20.680361
v 0.726597 0.169871 0.081929
v 0.755292 -0.048094 0.081929
v 0.726597 0.169864 20.680361
v 0.726597 0.169864 20.680361
v 0.642466 0.372980 0.081929
v 0.726597 0.169871 0.081929
v 0.642466 0.372974 20.680361
v 0.642466 0.372980 0.081929
v 0.508633 0.547389 20.680361
v 0.508633 0.547396 0.081929
v 0.642466 0.372974 20.680361
v 0.334219 0.681227 0.081929
v 0.508633 0.547389 20.680361
v 0.334219 0.681220 20.680361
v 0.508633 0.547396 0.081929
v -0.394243 -1.195284 0.081928
v -0.086855 -1.235757 20.680361
v -0.394243 -1.195290 20.680361
v -0.086855 -1.235750 0.081928
v -0.680683 -1.076631 0.081928
v -0.394243 -1.195290 20.680361
v -0.680684 -1.076638 20.680361
v -0.394243 -1.195284 0.081928
v 0.941687 -0.641920 0.081929
v 0.752946 -0.887898 20.680361
v 0.752946 -0.887892 0.081929
v 0.941686 -0.641927 20.680361
v 0.506974 -1.076631 0.081928
v 0.752946 -0.887898 20.680361
v 0.506974 -1.076638 20.680361
v 0.752946 -0.887892 0.081929
v -0.304818 0.765360 0.081929
v -0.086855 0.794047 20.680361
v -0.304819 0.765353 20.680361
v -0.086855 0.794054 0.081929
v -0.507928 0.681227 0.081929
v -0.304819 0.765353 20.680361
v -0.507928 0.681220 20.680361
v -0.304818 0.765360 0.081929
v -0.682342 0.547396 0.081929
v -0.507928 0.681220 20.680361
v -0.682343 0.547389 20.680361
v -0.507928 0.681227 0.081929
v -0.900306 -0.266061 20.680361
v -0.816175 -0.469164 0.081929
v -0.900306 -0.266054 0.081929
v -0.816176 -0.469170 20.680361
v -0.816176 -0.469170 20.680361
v -0.682342 -0.643579 0.081929
v -0.816175 -0.469164 0.081929
v -0.682343 -0.643586 20.680361
v -1.274512 -0.048100 20.680361
v -1.234043 0.259299 0.081929
v -1.274512 -0.048094 0.081929
v -1.234044 0.259292 20.680361
v -1.234044 0.259292 20.680361
v -1.115396 0.545737 0.081929
v -1.234043 0.259299 0.081929
v -1.115396 0.545730 20.680361
v 0.941686 0.545730 20.680361
v 1.060334 0.259299 0.081929
v 0.941687 0.545737 0.081929
v 1.060334 0.259292 20.680361
v 0.752946 0.791701 20.680361
v 0.941687 0.545737 0.081929
v 0.752946 0.791708 0.081929
v 0.941686 0.545730 20.680361
v 0.506974 0.980441 20.680361
v 0.220534 1.099097 0.081929
v 0.220533 1.099090 20.680361
v 0.506974 0.980448 0.081929
v 0.220533 1.099090 20.680361
v -0.086855 1.139563 0.081929
v -0.086855 1.139556 20.680361
v 0.220534 1.099097 0.081929
v -0.086855 1.139556 20.680361
v -0.394243 1.099097 0.081929
v -0.394243 1.099090 20.680361
v -0.086855 1.139563 0.081929
v 0.752946 0.791701 20.680361
v 0.506974 0.980448 0.081929
v 0.506974 0.980441 20.680361
v 0.752946 0.791708 0.081929
v -0.682342 0.547396 0.081929
v -0.816176 0.372974 20.680361
v -0.816175 0.372980 0.081929
v -0.682343 0.547389 20.680361
v -0.816175 0.372980 0.081929
v -0.900306 0.169864 20.680361
v -0.900306 0.169871 0.081929
v -0.816176 0.372974 20.680361
v -0.900306 0.169871 0.081929
v -0.929002 -0.048100 20.680361
v -0.929002 -0.048094 0.081929
v -0.900306 0.169864 20.680361
v -0.929002 -0.048094 0.081929
v -0.900306 -0.266061 20.680361
v -0.900306 -0.266054 0.081929
v -0.929002 -0.048100 20.680361
v -0.304819 -0.861550 20.680361
v -0.507928 -0.777414 0.081929
v -0.507928 -0.777421 20.680361
v -0.304818 -0.861543 0.081929
v -0.926655 -0.887892 0.081929
v -0.680684 -1.076638 20.680361
v -0.926655 -0.887898 20.680361
v -0.680683 -1.076631 0.081928
v -0.926655 -0.887892 0.081929
v -1.115396 -0.641927 20.680361
v -1.115396 -0.641920 0.081929
v -0.926655 -0.887898 20.680361
v -1.115396 -0.641920 0.081929
v -1.234044 -0.355489 20.680361
v -1.234043 -0.355482 0.081929
v -1.115396 -0.641927 20.680361
v -1.234044 -0.355489 20.680361
v -1.274512 -0.048094 0.081929
v -1.234043 -0.355482 0.081929
v -1.274512 -0.048100 20.680361
v 0.131109 0.765360 0.081929
v 0.334219 0.681220 20.680361
v 0.131109 0.765353 20.680361
v 0.334219 0.681227 0.081929
v -0.086855 0.794054 0.081929
v 0.131109 0.765353 20.680361
v -0.086855 0.794047 20.680361
v 0.131109 0.765360 0.081929
vt 218.503937 67.892693
vt -0.000000 65.560623
vt 218.503937 65.560623
vt -0.000000 67.892693
vt -218.503937 -64.603844
vt -0.000000 -62.271774
vt -218.503937 -62.271774
vt -0.000000 -64.603844
vt -218.503937 -57.470200
vt 0.000000 -54.181351
vt -218.503937 -54.181351
vt 0.000000 -57.470200
vt -218.503937 -46.053738
vt 0.000000 -42.764889
vt -218.503937 -42.764889
vt 0.000000 -46.053738
vt -0.000000 -15.125801
vt 218.503937 -11.836952
vt -0.000000 -11.836952
vt 218.503937 -15.125801
vt -0.000000 -54.181351
vt 218.503937 -57.470200
vt 218.503937 -54.181351
vt -0.000000 -57.470200
vt 0.000000 -61.793385
vt 218.503937 -65.082230
vt 218.503937 -61.793385
vt 0.000000 -65.082230
vt 218.503937 60.914215
vt -0.000000 58.582150
vt 218.503937 58.582150
vt -0.000000 60.914215
vt -0.000000 2.277981
vt 218.503937 5.566830
vt -0.000000 5.566830
vt 218.503937 2.277981
vt -218.503937 -28.322001
vt 0.000000 -31.610849
vt 0.000000 -28.322001
vt -218.503937 -31.610849
vt -0.000000 19.414457
vt 218.503937 22.703306
vt -0.000000 22.703306
vt 218.503937 19.414457
vt -218.503937 -56.991810
vt 0.000000 -54.659744
vt -218.503937 -54.659744
vt 0.000000 -56.991810
vt -218.503937 -45.575344
vt 0.000000 -43.243279
vt -218.503937 -43.243279
vt 0.000000 -45.575344
vt -218.503937 -28.800392
vt 0.000000 -31.132458
vt 0.000000 -28.800392
vt -218.503937 -31.132458
vt -218.503937 -12.315344
vt 0.000000 -14.647409
vt 0.000000 -12.315344
vt -218.503937 -14.647409
vt -218.503937 5.088438
vt 0.000000 2.756373
vt 0.000000 5.088438
vt -218.503937 2.756373
vt -218.503937 22.224915
vt 0.000000 19.892851
vt 0.000000 22.224915
vt -218.503937 19.892851
vt -218.503937 37.926266
vt 0.000000 35.594196
vt 0.000000 37.926266
vt -218.503937 35.594196
vt 0.000000 51.122463
vt -218.503937 48.790398
vt 0.000000 48.790398
vt -218.503937 51.122463
vt 0.000000 58.582150
vt -218.503937 60.914215
vt -218.503937 58.582150
vt 0.000000 60.914215
vt 0.000000 65.082230
vt -218.503937 68.371078
vt -218.503937 65.082230
vt 0.000000 68.371078
vt 0.000000 63.823769
vt -218.503937 67.112617
vt -218.503937 63.823769
vt 0.000000 67.112617
vt -0.000000 -31.610849
vt 218.503937 -28.322001
vt -0.000000 -28.322001
vt 218.503937 -31.610849
vt -0.000000 -42.764889
vt 218.503937 -46.053738
vt 218.503937 -42.764889
vt -0.000000 -46.053738
vt 0.000000 -62.271774
vt 218.503937 -64.603844
vt 218.503937 -62.271774
vt 0.000000 -64.603844
vt -0.000000 -54.659744
vt 218.503937 -56.991810
vt 218.503937 -54.659744
vt -0.000000 -56.991810
vt -0.000000 -43.243279
vt 218.503937 -45.575344
vt 218.503937 -43.243279
vt -0.000000 -45.575344
vt 218.503937 35.594196
vt -0.000000 37.926266
vt -0.000000 35.594196
vt 218.503937 37.926266
vt 218.503937 48.790398
vt -0.000000 51.122463
vt -0.000000 48.790398
vt 218.503937 51.122463
vt -218.503937 5.566830
vt 0.000000 2.277981
vt 0.000000 5.566830
vt -218.503937 2.277981
vt -218.503937 -11.836952
vt 0.000000 -15.125801
vt 0.000000 -11.836952
vt -218.503937 -15.125801
vt 218.503937 35.115807
vt -0.000000 38.404655
vt -0.000000 35.115807
vt 218.503937 38.404655
vt 218.503937 48.312008
vt -0.000000 51.600857
vt -0.000000 48.312008
vt 218.503937 51.600857
vt 218.503937 67.112617
vt -0.000000 63.823769
vt 218.503937 63.823769
vt -0.000000 67.112617
vt 218.503937 68.371078
vt -0.000000 65.082230
vt 218.503937 65.082230
vt -0.000000 68.371078
vt -218.503937 -65.082230
vt -0.000000 -61.793385
vt -218.503937 -61.793385
vt -0.000000 -65.082230
vt 218.503937 61.392609
vt -0.000000 58.103760
vt 218.503937 58.103760
vt -0.000000 61.392609
vt -0.000000 -31.132458
vt 218.503937 -28.800392
vt -0.000000 -28.800392
vt 218.503937 -31.132458
vt -0.000000 -14.647409
vt 218.503937 -12.315344
vt -0.000000 -12.315344
vt 218.503937 -14.647409
vt -0.000000 2.756373
vt 218.503937 5.088438
vt -0.000000 5.088438
vt 218.503937 2.756373
vt -0.000000 19.892851
vt 218.503937 22.224915
vt -0.000000 22.224915
vt 218.503937 19.892851
vt 218.503937 66.634224
vt -0.000000 64.302162
vt 218.503937 64.302162
vt -0.000000 66.634224
vt 0.000000 58.103760
vt -218.503937 61.392609
vt -218.503937 58.103760
vt 0.000000 61.392609
vt 0.000000 51.600857
vt -218.503937 48.312008
vt 0.000000 48.312008
vt -218.503937 51.600857
vt 0.000000 38.404655
vt -218.503937 35.115807
vt 0.000000 35.115807
vt -218.503937 38.404655
vt -218.503937 22.703306
vt 0.000000 19.414457
vt 0.000000 22.703306
vt -218.503937 19.414457
vt 0.000000 64.302162
vt -218.503937 66.634224
vt -218.503937 64.302162
vt 0.000000 66.634224
vt 0.000000 65.560623
vt -218.503937 67.892693
vt -218.503937 65.560623
vt 0.000000 67.892693
vn 0.1305 0.9914 0.0000
vn -0.1305 0.9914 0.0000
vn -0.3827 0.9239 0.0000
vn -0.6088 0.7934 0.0000
vn 0.9239 -0.3827 -0.0000
vn 0.3827 -0.9239 -0.0000
vn 0.1305 -0.9914 -0.0000
vn 0.6088 0.7934 0.0000
vn 0.6088 0.7933 0.0000
vn 0.9914 -0.1305 -0.0000
vn -0.7934 0.6088 0.0000
vn 0.9914 0.1305 0.0000
vn -0.6088 0.7933 0.0000
vn -0.9239 0.3827 0.0000
vn -0.9914 0.1305 0.0000
vn -0.9914 -0.1305 -0.0000
vn -0.9239 -0.3827 -0.0000
vn -0.7934 -0.6088 -0.0000
vn -0.6088 -0.7934 -0.0000
vn -0.1305 -0.9914 -0.0000
vn -0.3827 -0.9239 -0.0000
vn 0.7934 -0.6088 -0.0000
vn 0.6088 -0.7934 -0.0000
vn 0.9239 0.3827 0.0000
vn 0.7934 0.6088 0.0000
vn 0.3827 0.9239 0.0000
usemtl Charcoal.001
s 1
f 1/1/1 2/2/1 3/3/1
f 2/2/1 1/1/1 4/4/1
f 5/5/2 6/6/2 7/7/2
f 6/6/2 5/5/2 8/8/2
f 9/9/3 10/10/3 11/11/3
f 10/10/3 9/9/3 12/12/3
f 13/13/4 14/14/4 15/15/4
f 14/14/4 13/13/4 16/16/4
f 17/17/5 18/18/5 19/19/5
f 18/18/5 17/17/5 20/20/5
f 21/21/6 22/22/6 23/23/6
f 22/22/6 21/21/6 24/24/6
f 25/25/7 26/26/7 27/27/7
f 26/26/7 25/25/7 28/28/7
f 29/29/8 30/30/9 31/31/8
f 30/30/9 29/29/8 32/32/9
f 33/33/10 34/34/10 35/35/10
f 34/34/10 33/33/10 36/36/10
f 37/37/11 38/38/11 39/39/11
f 38/38/11 37/37/11 40/40/11
f 41/41/12 42/42/12 43/43/12
f 42/42/12 41/41/12 44/44/12
f 45/45/3 46/46/3 47/47/3
f 46/46/3 45/45/3 48/48/3
f 49/49/13 50/50/13 51/51/13
f 50/50/13 49/49/13 52/52/13
f 53/53/11 54/54/11 55/55/11
f 54/54/11 53/53/11 56/56/11
f 57/57/14 58/58/14 59/59/14
f 58/58/14 57/57/14 60/60/14
f 61/61/15 62/62/15 63/63/15
f 62/62/15 61/61/15 64/64/15
f 65/65/16 66/66/16 67/67/16
f 66/66/16 65/65/16 68/68/16
f 69/69/17 70/70/17 71/71/17
f 70/70/17 69/69/17 72/72/17
f 73/73/18 74/74/18 75/75/18
f 74/74/18 73/73/18 76/76/18
f 77/77/19 78/78/19 79/79/19
f 78/78/19 77/77/19 80/80/19
f 81/81/20 82/82/20 83/83/20
f 82/82/20 81/81/20 84/84/20
f 85/85/21 86/86/21 87/87/21
f 86/86/21 85/85/21 88/88/21
f 89/89/22 90/90/22 91/91/22
f 90/90/22 89/89/22 92/92/22
f 93/93/23 94/94/23 95/95/23
f 94/94/23 93/93/23 96/96/23
f 97/97/7 98/98/7 99/99/7
f 98/98/7 97/97/7 100/100/7
f 101/101/6 102/102/6 103/103/6
f 102/102/6 101/101/6 104/104/6
f 105/105/23 106/106/23 107/107/23
f 106/106/23 105/105/23 108/108/23
f 109/109/24 110/110/24 111/111/24
f 110/110/24 109/109/24 112/112/24
f 113/113/25 114/114/25 115/115/25
f 114/114/25 113/113/25 116/116/25
f 117/117/15 118/118/15 119/119/15
f 118/118/15 117/117/15 120/120/15
f 121/121/14 122/122/14 123/123/14
f 122/122/14 121/121/14 124/124/14
f 125/125/24 126/126/24 127/127/24
f 126/126/24 125/125/24 128/128/24
f 129/129/25 130/130/25 131/131/25
f 130/130/25 129/129/25 132/132/25
f 133/133/26 134/134/26 135/135/26
f 134/134/26 133/133/26 136/136/26
f 137/137/1 138/138/1 139/139/1
f 138/138/1 137/137/1 140/140/1
f 141/141/2 142/142/2 143/143/2
f 142/142/2 141/141/2 144/144/2
f 145/145/8 146/146/8 147/147/8
f 146/146/8 145/145/8 148/148/8
f 149/149/22 150/150/22 151/151/22
f 150/150/22 149/149/22 152/152/22
f 153/153/5 154/154/5 155/155/5
f 154/154/5 153/153/5 156/156/5
f 157/157/10 158/158/10 159/159/10
f 158/158/10 157/157/10 160/160/10
f 161/161/12 162/162/12 163/163/12
f 162/162/12 161/161/12 164/164/12
f 165/165/26 166/166/26 167/167/26
f 166/166/26 165/165/26 168/168/26
f 169/169/19 170/170/19 171/171/19
f 170/170/19 169/169/19 172/172/19
f 173/173/18 174/174/18 175/175/18
f 174/174/18 173/173/18 176/176/18
f 177/177/17 178/178/17 179/179/17
f 178/178/17 177/177/17 180/180/17
f 181/181/16 182/182/16 183/183/16
f 182/182/16 181/181/16 184/184/16
f 185/185/21 186/186/21 187/187/21
f 186/186/21 185/185/21 188/188/21
f 189/189/20 190/190/20 191/191/20
f 190/190/20 189/189/20 192/192/20
