# Blender v2.79 (sub 7) OBJ File: ''
# www.blender.org
mtllib wall29.mtl
o Cube.033
v 1.093750 0.000000 -0.156250
v 1.250000 0.000000 0.000000
v 1.093750 -0.000000 0.156250
v -1.093750 -0.000000 0.156250
v -1.250000 0.000000 0.000000
v -1.093750 0.000000 -0.156250
v 1.093750 2.875000 -0.156250
v -1.093750 2.875000 -0.156250
v -1.250000 2.875000 0.000000
v -1.093750 2.875000 0.156250
v 1.093750 2.875000 0.156250
v 1.250000 2.875000 0.000000
vt 0.864583 0.447917
vt 0.916667 0.500000
vt 0.864583 0.552083
vt 0.135417 0.552083
vt 0.083333 0.500000
vt 0.135417 0.447917
vt 0.864583 0.447917
vt 0.135417 0.447917
vt 0.083333 0.500000
vt 0.135417 0.552083
vt 0.864583 0.552083
vt 0.916667 0.500000
vt 0.916667 0.000000
vt 0.916667 1.000000
vt 0.864583 1.000000
vt 0.864583 0.000000
vt 0.135417 1.000000
vt 0.135417 0.000000
vt 0.083333 0.000000
vt 0.083333 1.000000
vt 0.135417 1.000000
vt 0.135417 0.000000
vt 0.864583 1.000000
vt 0.864583 0.000000
vn 0.0000 -1.0000 -0.0000
vn 0.0000 1.0000 0.0000
vn 0.7071 -0.0000 0.7071
vn 0.0000 -0.0000 1.0000
vn -0.7071 0.0000 -0.7071
vn 0.0000 0.0000 -1.0000
vn -0.7071 -0.0000 0.7071
vn 0.7071 0.0000 -0.7071
usemtl Material.033
s 1
f 1/1/1 2/2/1 3/3/1 4/4/1 5/5/1 6/6/1
f 7/7/2 8/8/2 9/9/2 10/10/2 11/11/2 12/12/2
f 2/13/3 12/14/3 11/15/3 3/16/3
f 3/16/4 11/15/4 10/17/4 4/18/4
f 5/19/5 9/20/5 8/21/5 6/22/5
f 7/23/6 1/24/6 6/22/6 8/21/6
f 4/18/7 10/17/7 9/20/7 5/19/7
f 1/24/8 7/23/8 12/14/8 2/13/8
