# Blender v2.79 (sub 7) OBJ File: ''
# www.blender.org
mtllib wall14.mtl
o Cube.017
v 1.250000 0.000000 -0.156250
v 1.093750 -0.000000 0.156250
v -1.250000 -0.000000 0.156250
v -1.093750 0.000000 -0.156250
v 1.250000 2.875000 -0.156250
v -1.093750 2.875000 -0.156250
v -1.250000 2.875000 0.156250
v 1.093750 2.875000 0.156250
vt 0.916667 0.447917
vt 0.864583 0.552083
vt 0.083333 0.552083
vt 0.135417 0.447917
vt 0.916667 0.447917
vt 0.135417 0.447917
vt 0.083333 0.552083
vt 0.864583 0.552083
vt 0.000000 0.447917
vt 1.000000 0.447917
vt 1.000000 0.552083
vt 0.000000 0.552083
vt 0.864583 0.000000
vt 0.864583 1.000000
vt 0.083333 1.000000
vt 0.083333 0.000000
vt 0.000000 0.552083
vt 1.000000 0.552083
vt 1.000000 0.447917
vt 0.000000 0.447917
vt 0.916667 1.000000
vt 0.916667 0.000000
vt 0.135417 0.000000
vt 0.135417 1.000000
vn 0.0000 -1.0000 -0.0000
vn 0.0000 1.0000 0.0000
vn 0.8944 -0.0000 0.4472
vn 0.0000 -0.0000 1.0000
vn -0.8944 0.0000 -0.4472
vn 0.0000 0.0000 -1.0000
usemtl Material.017
s 1
f 1/1/1 2/2/1 3/3/1 4/4/1
f 5/5/2 6/6/2 7/7/2 8/8/2
f 1/9/3 5/10/3 8/11/3 2/12/3
f 2/13/4 8/14/4 7/15/4 3/16/4
f 3/17/5 7/18/5 6/19/5 4/20/5
f 5/21/6 1/22/6 4/23/6 6/24/6
