# Blender v2.79 (sub 7) OBJ File: ''
# www.blender.org
mtllib wall26.mtl
o Cube.029
v 1.250000 0.000000 -0.156250
v 1.093750 -0.000000 0.156250
v -1.093750 -0.000000 0.156250
v -1.250000 0.000000 0.000000
v -1.093750 0.000000 -0.156250
v 1.250000 2.875000 -0.156250
v -1.093750 2.875000 -0.156250
v -1.250000 2.875000 0.000000
v -1.093750 2.875000 0.156250
v 1.093750 2.875000 0.156250
vt 0.989583 0.447917
vt 0.937500 0.552083
vt 0.208333 0.552083
vt 0.156250 0.500000
vt 0.208333 0.447917
vt 0.989583 0.447917
vt 0.208333 0.447917
vt 0.156250 0.500000
vt 0.208333 0.552083
vt 0.937500 0.552083
vt -0.000000 0.447917
vt 1.000000 0.447917
vt 1.000000 0.552083
vt -0.000000 0.552083
vt 0.937500 -0.000000
vt 0.937500 1.000000
vt 0.208333 1.000000
vt 0.208333 -0.000000
vt 0.156250 -0.000000
vt 0.156250 1.000000
vt 0.208333 1.000000
vt 0.208333 -0.000000
vt 0.989583 1.000000
vt 0.989583 -0.000000
vn 0.0000 -1.0000 -0.0000
vn 0.0000 1.0000 0.0000
vn 0.8944 -0.0000 0.4472
vn 0.0000 -0.0000 1.0000
vn -0.7071 0.0000 -0.7071
vn 0.0000 0.0000 -1.0000
vn -0.7071 -0.0000 0.7071
usemtl Material.029
s 1
f 1/1/1 2/2/1 3/3/1 4/4/1 5/5/1
f 6/6/2 7/7/2 8/8/2 9/9/2 10/10/2
f 1/11/3 6/12/3 10/13/3 2/14/3
f 2/15/4 10/16/4 9/17/4 3/18/4
f 4/19/5 8/20/5 7/21/5 5/22/5
f 6/23/6 1/24/6 5/22/6 7/21/6
f 3/18/7 9/17/7 8/20/7 4/19/7
