o floor_1_x_1.obj
v -0.500000 0.000000 -0.500000
v 0.500000 0.000000 -0.500000
v -0.500000 0.100000 -0.500000
v 0.500000 0.100000 -0.500000
v -0.500000 0.000000 0.500000
v 0.500000 0.000000 0.500000
v -0.500000 0.100000 0.500000
v 0.500000 0.100000 0.500000
vn -0.577350 -0.577350 -0.577350
vn 0.577350 -0.577350 -0.577350
vn -0.577350 0.577350 -0.577350
vn 0.577350 0.577350 -0.577350
vn -0.577350 -0.577350 0.577350
vn 0.577350 -0.577350 0.577350
vn -0.577350 0.577350 0.577350
vn 0.577350 0.577350 0.577350
vt 0.202123 0.004950
vt 0.251567 0.004950
vt 0.251567 0.499394
vt 0.202123 0.499394
vt 0.252778 0.004950
vt 0.302222 0.004950
vt 0.302222 0.499394
vt 0.252778 0.499394
vt 0.151467 0.500606
vt 0.645911 0.500606
vt 0.645911 0.995049
vt 0.151467 0.995049
vt 0.303434 0.004950
vt 0.352878 0.004950
vt 0.352878 0.499394
vt 0.303434 0.499394
vt 0.354089 0.004950
vt 0.848533 0.004950
vt 0.848533 0.499394
vt 0.354089 0.499394
vt 0.151467 0.004950
vt 0.200911 0.004950
vt 0.200911 0.499394
vt 0.151467 0.499394
g Cube
usemtl Default
f 4/1/4 2/2/2 1/3/1 3/4/3 
f 6/5/6 8/6/8 7/7/7 5/8/5 
f 6/9/6 5/10/5 1/11/1 2/12/2 
f 8/13/8 6/14/6 2/15/2 4/16/4 
f 7/17/7 8/18/8 4/19/4 3/20/3 
f 5/21/5 7/22/7 3/23/3 1/24/1 
