# Alias Wavefront OBJ File Exported from SketchUp
# with OBJexporter (c) 2013 TIG
# Units = meters

mtllib SF_Kit_Exterior_Wall_1_m.mtl

g SF_Kit_Exterior_Wall_1_m-SKP-Default_Material
usemtl Default_Material
v 0 0.25 -1.75
v 2.5 0 -1.75
v 0 0 -1.75
v 2.5 0.25 -1.75
v 0 3 -1.75
v 2.5 2.75 -1.75
v 0 2.75 -1.75
v 2.5 3 -1.75
v 2.5 3 -1
v 0 3 -1
v 0 2.75 -1.5
v 0 0 0
v 0 0.289123857099 -1.52066466597
v 0 0.3 -1.51339745962
v 0 0.311731656763 -1.50761204675
v 0 0.32411809549 -1.50340741737
v 0 0.336947380778 -1.50085551386
v 0 0.35 -1.5
v 0 0.279289321881 -1.52928932188
v 0 0.270664665971 -1.5391238571
v 0 0.263397459622 -1.55
v 0 0.257612046749 -1.56173165676
v 0 0.253407417371 -1.57411809549
v 0 0.250855513863 -1.58694738078
v 0 0.25 -1.6
v 2.5 0 0
v 2.5 2.75 -1.5
v 2.5 0.336947380778 -1.50085551386
v 2.5 0.32411809549 -1.50340741737
v 2.5 0.311731656763 -1.50761204675
v 2.5 0.3 -1.51339745962
v 2.5 0.289123857099 -1.52066466597
v 2.5 0.35 -1.5
v 2.5 0.279289321881 -1.52928932188
v 2.5 0.270664665971 -1.5391238571
v 2.5 0.263397459622 -1.55
v 2.5 0.257612046749 -1.56173165676
v 2.5 0.253407417371 -1.57411809549
v 2.5 0.250855513863 -1.58694738078
v 2.5 0.25 -1.6
vt 0 9.84251968504
vt -98.4251968504 0
vt 0 0
vt -98.4251968504 9.84251968504
vt 0 118.11023622
vt -98.4251968504 108.267716535
vt 0 108.267716535
vt -98.4251968504 118.11023622
vt 98.4251968504 39.3700787402
vt 0 68.8976377953
vt 0 39.3700787402
vt 98.4251968504 68.8976377953
vt -68.8976377953 118.11023622
vt -59.0551181102 108.267716535
vt -39.3700787402 118.11023622
vt -68.8976377953 108.267716535
vt -59.8686876366 11.3828290197
vt -68.8976377953 0
vt -59.5825771505 11.811023622
vt -59.3548049901 12.2728998726
vt -59.1892684004 12.7605549405
vt -59.0887997584 13.2656449125
vt -59.0551181102 13.7795275591
vt -60.208241019 10.9956425938
vt -60.5954274448 10.6560892115
vt -61.0236220472 10.3699787253
vt -61.4854982978 10.1422065649
vt -61.9731533657 9.97666997524
vt -62.4782433377 9.87620133317
vt -62.9921259843 9.84251968504
vt -68.8976377953 9.84251968504
vt -98.4251968504 68.8976377953
vt 98.4251968504 124.499120479
vt 98.4251968504 0
vt 0 124.499120479
vt 0 59.0551181102
vt -98.4251968504 59.0551181102
vt 59.0887997584 13.2656449125
vt 39.3700787402 118.11023622
vt 59.1892684004 12.7605549405
vt 59.3548049901 12.2728998726
vt 59.5825771505 11.811023622
vt 59.8686876366 11.3828290197
vt 68.8976377953 0
vt 59.0551181102 13.7795275591
vt 60.208241019 10.9956425938
vt 60.5954274448 10.6560892115
vt 61.0236220472 10.3699787253
vt 61.4854982978 10.1422065649
vt 61.9731533657 9.97666997524
vt 62.4782433377 9.87620133317
vt 62.9921259843 9.84251968504
vt 68.8976377953 9.84251968504
vt 59.0551181102 108.267716535
vt 68.8976377953 118.11023622
vt 68.8976377953 108.267716535
vt 98.4251968504 62.9921259843
vt 0 62.9921259843
vt 0 13.7795275591
vt -98.4251968504 13.7795275591
vt -98.4251968504 -54.96236541
vt 1.37160633065e-015 -55.4773506795
vt 1.36081341884e-015 -54.96236541
vt -98.4251968504 -55.4773506795
vt -98.4251968504 -61.6985381507
vt 0 -62.2135234202
vt 0 -61.6985381507
vt -98.4251968504 -62.2135234202
vt -98.4251968504 -58.8360048432
vt 0 -59.3509901127
vt 0 -58.8360048432
vt -98.4251968504 -59.3509901127
vt -98.4251968504 -44.4630505986
vt 6.86139690979e-016 -44.9780358681
vt 6.81325140444e-016 -44.4630505986
vt -98.4251968504 -44.9780358681
vt -98.4251968504 -50.1438988958
vt 9.44647522033e-016 -50.6588841653
vt 9.37551373061e-016 -50.1438988958
vt -98.4251968504 -50.6588841653
vt 6.01076112126e-016 -23.796784309
vt -98.4251968504 -23.2817990395
vt -98.4251968504 -23.796784309
vt 5.98203589185e-016 -23.2817990395
vt -98.4251968504 -38.0170214078
vt 1.03821920777e-015 -38.5320066773
vt 1.03158530153e-015 -38.0170214078
vt -98.4251968504 -38.5320066773
vt 7.93379584077e-016 -31.4310899396
vt -98.4251968504 -30.9161046701
vt -98.4251968504 -31.4310899396
vt 7.88905201224e-016 -30.9161046701
vt 2.2075037056e-016 -15.7597148715
vt -98.4251968504 -15.244729602
vt -98.4251968504 -15.7597148715
vt 2.19906486472e-016 -15.244729602
vt 1.76905730727e-016 0.968111023319
vt -98.4251968504 1.48309629285
vt -98.4251968504 0.968111023319
vt 1.76605448615e-016 1.48309629285
vt 5.81931269873e-017 9.37264974182
vt -98.4251968504 9.88763501135
vt -98.4251968504 9.37264974182
vt 5.81599558883e-017 9.88763501135
vt 1.50949396721e-016 -6.94241284405
vt -98.4251968504 -7.45739811357
vt 1.51371561905e-016 -7.45739811357
vt -98.4251968504 -6.94241284405
vn 0 0 -1
vn 0 1 0
vn -1 0 0
vn 0 -1 0
vn 0 0.316227766017 0.948683298051
vn 1 0 0
vn 7.11418382937e-018 0.946930129495 -0.321439465303
vn 0 0.997858923239 -0.0654031292301
vn 0 0.980785280403 -0.195090322016
vn 6.24674142918e-018 0.831469612303 -0.55557023302
vn 6.79521068879e-018 0.896872741533 -0.442288690219
vn 8.34787835916e-018 0.55557023302 -0.831469612303
vn 1.12969826052e-017 0.751839807479 -0.6593458151
vn 9.90718784763e-018 0.6593458151 -0.751839807479
vn 3.32286717875e-018 0.442288690219 -0.896872741533
vn 2.9313850535e-018 0.195090322016 -0.980785280403
vn 9.82733297561e-019 0.0654031292301 -0.997858923239
vn 2.41493999922e-018 0.321439465303 -0.946930129495
f 1/1/1 2/2/1 3/3/1
f 2/2/1 1/1/1 4/4/1
f 5/5/1 6/6/1 7/7/1
f 6/6/1 5/5/1 8/8/1
f 9/9/2 5/10/2 10/11/2
f 5/10/2 9/9/2 8/12/2
f 5/13/3 11/14/3 10/15/3
f 11/14/3 5/13/3 7/16/3
f 12/3/3 13/17/3 3/18/3
f 13/17/3 12/3/3 14/19/3
f 14/19/3 12/3/3 15/20/3
f 15/20/3 12/3/3 16/21/3
f 16/21/3 12/3/3 17/22/3
f 17/22/3 12/3/3 10/15/3
f 17/22/3 10/15/3 18/23/3
f 18/23/3 10/15/3 11/14/3
f 3/18/3 13/17/3 19/24/3
f 3/18/3 19/24/3 20/25/3
f 3/18/3 20/25/3 21/26/3
f 3/18/3 21/26/3 22/27/3
f 3/18/3 22/27/3 23/28/3
f 3/18/3 23/28/3 24/29/3
f 3/18/3 24/29/3 25/30/3
f 3/18/3 25/30/3 1/31/3
f 2/32/4 12/3/4 3/10/4
f 12/3/4 2/32/4 26/2/4
f 9/33/5 12/3/5 26/34/5
f 12/3/5 9/33/5 10/35/5
f 6/32/4 11/36/4 7/10/4
f 11/36/4 6/32/4 27/37/4
f 26/3/6 28/38/6 9/39/6
f 28/38/6 26/3/6 29/40/6
f 29/40/6 26/3/6 30/41/6
f 30/41/6 26/3/6 31/42/6
f 31/42/6 26/3/6 32/43/6
f 32/43/6 26/3/6 2/44/6
f 9/39/6 28/38/6 33/45/6
f 32/43/6 2/44/6 34/46/6
f 34/46/6 2/44/6 35/47/6
f 35/47/6 2/44/6 36/48/6
f 36/48/6 2/44/6 37/49/6
f 37/49/6 2/44/6 38/50/6
f 38/50/6 2/44/6 39/51/6
f 39/51/6 2/44/6 40/52/6
f 40/52/6 2/44/6 4/53/6
f 9/39/6 27/54/6 8/55/6
f 27/54/6 9/39/6 33/45/6
f 8/55/6 27/54/6 6/56/6
f 40/57/2 1/10/2 25/58/2
f 1/10/2 40/57/2 4/12/2
f 18/59/1 27/6/1 33/60/1
f 27/6/1 18/59/1 11/7/1
f 37/61/7 23/62/7 22/63/7
f 23/62/7 37/61/7 38/64/7
f 39/65/8 25/66/8 24/67/8
f 25/66/8 39/65/8 40/68/8
f 38/69/9 24/70/9 23/71/9
f 24/70/9 38/69/9 39/72/9
f 35/73/10 21/74/10 20/75/10
f 21/74/10 35/73/10 36/76/10
f 36/77/11 22/78/11 21/79/11
f 22/78/11 36/77/11 37/80/11
f 13/81/12 31/82/12 32/83/12
f 31/82/12 13/81/12 14/84/12
f 34/85/13 20/86/13 19/87/13
f 20/86/13 34/85/13 35/88/13
f 19/89/14 32/90/14 34/91/14
f 32/90/14 19/89/14 13/92/14
f 14/93/15 30/94/15 31/95/15
f 30/94/15 14/93/15 15/96/15
f 16/97/16 28/98/16 29/99/16
f 28/98/16 16/97/16 17/100/16
f 17/101/17 33/102/17 28/103/17
f 33/102/17 17/101/17 18/104/17
f 16/105/18 30/106/18 15/107/18
f 30/106/18 16/105/18 29/108/18

#EOF
