# Blender v2.74 (sub 0) OBJ File: 'box_2.5_x_3_x_2.5.blend'
# www.blender.org
mtllib uvtest.mtl
o Cube_Cube.001
v -1.250000 1.500000 1.250000
v -1.250000 1.500000 -1.250000
v -1.250000 -1.500000 -1.250000
v -1.250000 -1.500000 1.250000
v 1.250000 1.500000 -1.250000
v 1.250000 -1.500000 -1.250000
v 1.250000 1.500000 1.250000
v 1.250000 -1.500000 1.250000
vt 0.000000 0.000000
vt 1.000000 0.000000
vt 1.000000 1.000000
vt 0.000000 1.000000
vn -1.000000 0.000000 0.000000
vn 0.000000 0.000000 -1.000000
vn 1.000000 0.000000 0.000000
vn 0.000000 -0.000000 1.000000
vn 0.000000 -1.000000 -0.000000
vn 0.000000 1.000000 0.000000
usemtl None
s 1
f 1/1/1 2/2/1 3/3/1 4/4/1
f 2/1/2 5/2/2 6/3/2 3/4/2
f 5/1/3 7/2/3 8/3/3 6/4/3
f 7/1/4 1/2/4 4/3/4 8/4/4
f 4/1/5 3/2/5 6/3/5 8/4/5
f 7/1/6 5/2/6 2/3/6 1/4/6
