# Alias Wavefront OBJ File Exported from SketchUp
# with OBJexporter (c) 2010-2011 TIG
# Units = meters

mtllib box_frame.mtl

g box_frame-COM-Group_1-3251-Default_Material
usemtl Default_Material
v -0.467628 -0.631458 0.501324
v -0.508019 -0.633000 0.501324
v -0.467628 -0.633000 0.501324
v -0.508019 -0.554242 0.501324
v -0.467628 -0.554242 0.501324
v 0.460010 -0.554242 0.501324
v -0.467628 -0.631458 0.501324
v 0.460010 -0.631458 0.501324
v -0.467628 -0.554242 0.501324
vn 0.000000 0.000000 1.000000
vn 0.000000 0.000000 1.000000
vn 0.000000 0.000000 1.000000
vn 0.000000 0.000000 1.000000
vn 0.000000 0.000000 1.000000
vn 0.000000 0.000000 1.000000
vn 0.000000 0.000000 1.000000
vn 0.000000 0.000000 1.000000
vn 0.000000 0.000000 1.000000
vt 1.971141 0.000000
vt 0.000000 -0.039370
vt 1.971141 -0.039370
vt 0.000000 1.971141
vt 1.971141 1.971141
vt 47.241457 1.971141
vt 1.971141 0.000000
vt 47.241457 0.000000
vt 1.971141 1.971141
f 1/1/1 2/2/2 3/3/3
f 2/2/2 1/1/1 4/4/4
f 4/4/4 1/1/1 5/5/5
f 6/6/6 7/7/7 8/8/8
f 7/7/7 6/6/6 9/9/9

g box_frame-GRP-1527-Default_Material
usemtl Default_Material
v 0.464010 -0.554242 -0.448609
v 0.464010 -0.631458 0.451324
v 0.464010 -0.554242 0.451324
v 0.464010 -0.631458 -0.448609
v -0.463628 -0.631458 0.501324
v -0.504019 -0.633000 0.501324
v -0.463628 -0.633000 0.501324
v -0.504019 -0.631458 0.501324
v 0.464010 0.293886 0.451324
v 0.504401 -0.554242 0.451324
v 0.464010 -0.554242 0.451324
v 0.504401 0.293886 0.451324
v -0.504019 0.371102 0.501324
v -0.463628 0.371102 0.451257
v -0.504019 0.371102 -0.498676
v 0.464010 0.371102 0.501324
v 0.464010 0.371102 0.451257
v 0.504401 0.371102 0.501324
v 0.464010 0.371102 -0.448609
v -0.463628 0.371102 -0.448609
v 0.504401 0.371102 -0.498676
v -0.504019 -0.631458 -0.498676
v -0.463628 -0.554242 -0.498676
v 0.504401 -0.631458 -0.498676
v -0.504019 0.371102 -0.498676
v 0.464010 -0.554242 -0.498676
v -0.463628 0.293886 -0.498676
v 0.464010 0.293886 -0.498676
v 0.504401 0.371102 -0.498676
v -0.504019 -0.631458 -0.498676
v -0.463682 -0.631458 -0.448609
v -0.504019 -0.631458 0.451257
v 0.504401 -0.631458 -0.498676
v -0.504019 -0.631458 0.501324
v 0.464010 -0.631458 -0.448609
v 0.464010 -0.631458 0.451324
v 0.504401 -0.631458 -0.448609
v -0.463682 -0.631458 0.451324
v -0.463628 -0.631458 0.501324
v 0.504401 -0.631458 0.501324
v -0.463682 -0.631458 -0.448609
v -0.463682 -0.554242 0.451324
v -0.463682 -0.631458 0.451324
v -0.463682 -0.554242 -0.448609
v -0.463682 -0.554242 0.451324
v 0.464010 -0.631458 0.451324
v -0.463682 -0.631458 0.451324
v 0.464010 -0.554242 0.451324
v 0.504401 -0.631458 0.501324
v 0.504401 -0.554242 0.451324
v 0.504401 0.371102 0.501324
v 0.504401 -0.631458 -0.448609
v 0.504401 -0.554242 -0.448609
v 0.504401 -0.631458 -0.498676
v 0.504401 0.293886 -0.448609
v 0.504401 0.293886 0.451324
v 0.504401 0.371102 -0.498676
v 0.464010 -0.554242 -0.448609
v -0.463682 -0.631458 -0.448609
v 0.464010 -0.631458 -0.448609
v -0.463682 -0.554242 -0.448609
v -0.463628 -0.554242 -0.448609
v -0.504019 -0.631458 0.451257
v -0.504019 -0.633000 0.501324
v -0.504019 -0.631458 0.501324
v -0.504019 -0.633000 0.451257
v 0.464010 0.371102 -0.448609
v -0.463628 0.293886 -0.448609
v 0.464010 0.293886 -0.448609
v -0.463628 0.371102 -0.448609
v 0.504401 0.293886 -0.448609
v 0.464010 0.293886 0.451257
v 0.464010 0.293886 -0.448609
v 0.464010 0.293886 0.451324
v 0.504401 0.293886 0.451324
v 0.504401 0.293886 -0.448609
v 0.464010 -0.554242 -0.448609
v 0.504401 -0.554242 -0.448609
v 0.464010 0.293886 -0.448609
v 0.464010 0.293886 -0.448609
v 0.464010 -0.554242 -0.498676
v 0.464010 -0.554242 -0.448609
v 0.464010 0.293886 -0.498676
v 0.504401 -0.554242 0.451324
v 0.464010 -0.554242 -0.448609
v 0.464010 -0.554242 0.451324
v 0.504401 -0.554242 -0.448609
v 0.464010 -0.554242 -0.448609
v -0.463628 -0.554242 -0.498676
v -0.463628 -0.554242 -0.448609
v 0.464010 -0.554242 -0.498676
v -0.463628 0.371102 0.451257
v 0.464010 0.293886 0.451257
v -0.463628 0.293886 0.451257
v 0.464010 0.371102 0.451257
v 0.464010 0.371102 -0.448609
v 0.464010 0.293886 0.451257
v 0.464010 0.371102 0.451257
v 0.464010 0.293886 -0.448609
v 0.464010 0.293886 0.451257
v -0.463628 0.293886 0.501324
v -0.463628 0.293886 0.451257
v 0.464010 0.293886 0.501324
v 0.464010 0.293886 0.451324
v -0.463628 0.293886 -0.448609
v -0.463628 0.371102 0.451257
v -0.463628 0.293886 0.451257
v -0.463628 0.371102 -0.448609
v 0.464010 0.293886 0.451324
v 0.464010 -0.554242 0.501324
v 0.464010 0.293886 0.501324
v 0.464010 -0.554242 0.451324
v 0.464010 0.293886 -0.498676
v -0.463628 0.293886 -0.448609
v -0.463628 0.293886 -0.498676
v 0.464010 0.293886 -0.448609
v -0.463628 0.293886 -0.448609
v -0.504019 0.293886 0.451257
v -0.504019 0.293886 -0.448609
v -0.463628 0.293886 0.451257
v -0.463628 -0.554242 -0.498676
v -0.463628 0.293886 -0.448609
v -0.463628 -0.554242 -0.448609
v -0.463628 0.293886 -0.498676
v -0.463628 0.293886 -0.448609
v -0.463682 -0.554242 -0.448609
v -0.463628 -0.554242 -0.448609
v -0.504019 -0.554242 -0.448609
v -0.504019 0.293886 -0.448609
v 0.464010 0.371102 0.501324
v -0.463628 0.293886 0.501324
v 0.464010 0.293886 0.501324
v -0.504019 -0.554242 0.501324
v -0.463628 -0.554242 0.501324
v -0.504019 0.371102 0.501324
v 0.464010 0.293886 0.451324
v 0.464010 0.371102 0.501324
v 0.464010 0.293886 0.501324
v 0.464010 0.371102 0.451257
v 0.464010 0.293886 0.451257
v 0.504401 0.371102 0.501324
v 0.464010 -0.554242 0.501324
v 0.504401 -0.631458 0.501324
v 0.464010 0.293886 0.501324
v 0.464010 0.371102 0.501324
v -0.463628 -0.554242 0.501324
v -0.463628 -0.631458 0.501324
v -0.504019 -0.554242 0.451257
v -0.504019 -0.554242 0.501324
v -0.504019 0.293886 0.451257
v -0.504019 0.371102 0.501324
v -0.504019 0.371102 -0.498676
v -0.504019 0.293886 -0.448609
v -0.504019 -0.554242 -0.448609
v -0.504019 -0.631458 -0.498676
v -0.504019 -0.631458 0.451257
v -0.463628 -0.554242 0.501324
v -0.504019 -0.554242 0.451257
v -0.504019 -0.554242 0.501324
v -0.463682 -0.554242 0.451324
v 0.464010 -0.554242 0.451324
v 0.464010 -0.554242 0.501324
v -0.463682 -0.554242 -0.448609
v -0.504019 -0.554242 -0.448609
v -0.504019 -0.554242 0.451257
v -0.504019 -0.631458 0.501324
v -0.504019 -0.554242 0.501324
v -0.504019 -0.631458 0.451257
v -0.463628 -0.633000 0.451257
v -0.463628 -0.631458 0.501324
v -0.463628 -0.633000 0.501324
v -0.463628 -0.554242 0.501324
v -0.463628 0.293886 0.501324
v -0.463628 0.293886 0.451257
v -0.504019 -0.631458 0.451257
v -0.463628 -0.633000 0.451257
v -0.504019 -0.633000 0.451257
v -0.463628 0.293886 0.451257
v -0.504019 -0.554242 0.451257
v -0.504019 0.293886 0.451257
vn -1.000000 0.000000 -0.000000
vn -1.000000 0.000000 -0.000000
vn -1.000000 0.000000 -0.000000
vn -1.000000 0.000000 -0.000000
vn 0.000000 0.000000 1.000000
vn 0.000000 0.000000 1.000000
vn 0.000000 0.000000 1.000000
vn 0.000000 0.000000 1.000000
vn 0.000000 0.000000 -1.000000
vn 0.000000 0.000000 -1.000000
vn 0.000000 0.000000 -1.000000
vn 0.000000 0.000000 -1.000000
vn 0.000000 1.000000 -0.000000
vn 0.000000 1.000000 -0.000000
vn 0.000000 1.000000 -0.000000
vn 0.000000 1.000000 -0.000000
vn 0.000000 1.000000 -0.000000
vn 0.000000 1.000000 -0.000000
vn 0.000000 1.000000 -0.000000
vn 0.000000 1.000000 -0.000000
vn 0.000000 1.000000 -0.000000
vn -0.000000 -0.000000 -1.000000
vn -0.000000 -0.000000 -1.000000
vn -0.000000 -0.000000 -1.000000
vn -0.000000 -0.000000 -1.000000
vn -0.000000 -0.000000 -1.000000
vn -0.000000 -0.000000 -1.000000
vn -0.000000 -0.000000 -1.000000
vn -0.000000 -0.000000 -1.000000
vn 0.000000 -1.000000 -0.000000
vn 0.000000 -1.000000 -0.000000
vn 0.000000 -1.000000 -0.000000
vn 0.000000 -1.000000 -0.000000
vn 0.000000 -1.000000 -0.000000
vn 0.000000 -1.000000 -0.000000
vn 0.000000 -1.000000 -0.000000
vn 0.000000 -1.000000 -0.000000
vn 0.000000 -1.000000 -0.000000
vn 0.000000 -1.000000 -0.000000
vn 0.000000 -1.000000 -0.000000
vn 1.000000 0.000000 -0.000000
vn 1.000000 0.000000 -0.000000
vn 1.000000 0.000000 -0.000000
vn 1.000000 0.000000 -0.000000
vn 0.000000 0.000000 -1.000000
vn 0.000000 0.000000 -1.000000
vn 0.000000 0.000000 -1.000000
vn 0.000000 0.000000 -1.000000
vn 1.000000 0.000000 0.000000
vn 1.000000 0.000000 0.000000
vn 1.000000 0.000000 0.000000
vn 1.000000 0.000000 0.000000
vn 1.000000 0.000000 0.000000
vn 1.000000 0.000000 0.000000
vn 1.000000 0.000000 0.000000
vn 1.000000 0.000000 0.000000
vn 1.000000 0.000000 0.000000
vn -0.000000 0.000000 1.000000
vn -0.000000 0.000000 1.000000
vn -0.000000 0.000000 1.000000
vn -0.000000 0.000000 1.000000
vn -0.000000 0.000000 1.000000
vn -1.000000 0.000000 0.000000
vn -1.000000 0.000000 0.000000
vn -1.000000 0.000000 0.000000
vn -1.000000 0.000000 0.000000
vn 0.000000 0.000000 1.000000
vn 0.000000 0.000000 1.000000
vn 0.000000 0.000000 1.000000
vn 0.000000 0.000000 1.000000
vn 0.000000 -1.000000 -0.000000
vn 0.000000 -1.000000 -0.000000
vn 0.000000 -1.000000 -0.000000
vn 0.000000 -1.000000 -0.000000
vn 0.000000 -1.000000 -0.000000
vn 0.000000 0.000000 1.000000
vn 0.000000 0.000000 1.000000
vn 0.000000 0.000000 1.000000
vn 0.000000 0.000000 1.000000
vn -1.000000 0.000000 -0.000000
vn -1.000000 0.000000 -0.000000
vn -1.000000 0.000000 -0.000000
vn -1.000000 0.000000 -0.000000
vn 0.000000 1.000000 -0.000000
vn 0.000000 1.000000 -0.000000
vn 0.000000 1.000000 -0.000000
vn 0.000000 1.000000 -0.000000
vn 0.000000 1.000000 -0.000000
vn 0.000000 1.000000 -0.000000
vn 0.000000 1.000000 -0.000000
vn 0.000000 1.000000 -0.000000
vn 0.000000 0.000000 -1.000000
vn 0.000000 0.000000 -1.000000
vn 0.000000 0.000000 -1.000000
vn 0.000000 0.000000 -1.000000
vn -1.000000 0.000000 -0.000000
vn -1.000000 0.000000 -0.000000
vn -1.000000 0.000000 -0.000000
vn -1.000000 0.000000 -0.000000
vn 0.000000 -1.000000 -0.000000
vn 0.000000 -1.000000 -0.000000
vn 0.000000 -1.000000 -0.000000
vn 0.000000 -1.000000 -0.000000
vn 0.000000 -1.000000 -0.000000
vn 1.000000 0.000000 -0.000000
vn 1.000000 0.000000 -0.000000
vn 1.000000 0.000000 -0.000000
vn 1.000000 0.000000 -0.000000
vn -1.000000 0.000000 -0.000000
vn -1.000000 0.000000 -0.000000
vn -1.000000 0.000000 -0.000000
vn -1.000000 0.000000 -0.000000
vn 0.000000 -1.000000 -0.000000
vn 0.000000 -1.000000 -0.000000
vn 0.000000 -1.000000 -0.000000
vn 0.000000 -1.000000 -0.000000
vn 0.000000 -1.000000 -0.000000
vn 0.000000 -1.000000 -0.000000
vn 0.000000 -1.000000 -0.000000
vn 0.000000 -1.000000 -0.000000
vn 1.000000 0.000000 -0.000000
vn 1.000000 0.000000 -0.000000
vn 1.000000 0.000000 -0.000000
vn 1.000000 0.000000 -0.000000
vn 0.000000 0.000000 1.000000
vn 0.000000 0.000000 1.000000
vn 0.000000 0.000000 1.000000
vn 0.000000 0.000000 1.000000
vn 0.000000 0.000000 1.000000
vn 0.000000 0.000000 1.000000
vn 0.000000 0.000000 1.000000
vn 0.000000 0.000000 1.000000
vn 0.000000 0.000000 1.000000
vn 0.000000 0.000000 1.000000
vn 0.000000 0.000000 1.000000
vn 1.000000 0.000000 -0.000000
vn 1.000000 0.000000 -0.000000
vn 1.000000 0.000000 -0.000000
vn 1.000000 0.000000 -0.000000
vn 1.000000 0.000000 -0.000000
vn 0.000000 0.000000 1.000000
vn 0.000000 0.000000 1.000000
vn 0.000000 0.000000 1.000000
vn 0.000000 0.000000 1.000000
vn 0.000000 0.000000 1.000000
vn 0.000000 0.000000 1.000000
vn 0.000000 0.000000 1.000000
vn -1.000000 -0.000000 -0.000000
vn -1.000000 -0.000000 -0.000000
vn -1.000000 -0.000000 -0.000000
vn -1.000000 -0.000000 -0.000000
vn -1.000000 -0.000000 -0.000000
vn -1.000000 -0.000000 -0.000000
vn -1.000000 -0.000000 -0.000000
vn -1.000000 -0.000000 -0.000000
vn -1.000000 -0.000000 -0.000000
vn -0.000000 1.000000 0.000000
vn -0.000000 1.000000 0.000000
vn -0.000000 1.000000 0.000000
vn -0.000000 1.000000 0.000000
vn -0.000000 1.000000 0.000000
vn -0.000000 1.000000 0.000000
vn -0.000000 1.000000 0.000000
vn -0.000000 1.000000 0.000000
vn -1.000000 -0.000000 0.000000
vn -1.000000 -0.000000 0.000000
vn -1.000000 -0.000000 0.000000
vn -1.000000 -0.000000 0.000000
vn 1.000000 0.000000 -0.000000
vn 1.000000 0.000000 -0.000000
vn 1.000000 0.000000 -0.000000
vn 1.000000 0.000000 -0.000000
vn 1.000000 0.000000 -0.000000
vn 1.000000 0.000000 -0.000000
vn 0.000000 0.000000 -1.000000
vn 0.000000 0.000000 -1.000000
vn 0.000000 0.000000 -1.000000
vn 0.000000 0.000000 -1.000000
vn 0.000000 0.000000 -1.000000
vn 0.000000 0.000000 -1.000000
vt -37.398937 2.010511
vt -1.968504 0.039370
vt -1.968504 2.010511
vt -37.398937 0.039370
vt 1.971141 0.039370
vt 0.000000 0.000000
vt 1.971141 0.000000
vt 0.000000 0.039370
vt -47.241457 23.661417
vt -49.212598 2.010511
vt -47.241457 2.010511
vt -49.212598 23.661417
vt 0.000000 0.000000
vt 1.971141 1.971141
vt 0.000000 39.370079
vt 47.241457 0.000000
vt 47.241457 1.971141
vt 49.212598 0.000000
vt 47.241457 37.398937
vt 1.971141 37.398937
vt 49.212598 39.370079
vt -0.000000 0.039370
vt -1.971141 2.010511
vt -49.212598 0.039370
vt -0.000000 25.632559
vt -47.241457 2.010511
vt -1.971141 23.661417
vt -47.241457 23.661417
vt -49.212598 25.632559
vt -0.000000 39.370079
vt -1.968504 37.398937
vt -0.000000 1.971141
vt -49.212598 39.370079
vt -0.000000 0.000000
vt -47.241457 37.398937
vt -47.241457 1.968504
vt -49.212598 37.398937
vt -1.968504 1.968504
vt -1.971141 0.000000
vt -49.212598 0.000000
vt 37.398937 0.039370
vt 1.968504 2.010511
vt 1.968504 0.039370
vt 37.398937 2.010511
vt -1.968504 2.010511
vt -47.241457 0.039370
vt -1.968504 0.039370
vt -47.241457 2.010511
vt 0.000000 0.039370
vt 1.968504 2.010511
vt 0.000000 25.632559
vt 37.398937 0.039370
vt 37.398937 2.010511
vt 39.370079 0.039370
vt 37.398937 23.661417
vt 1.968504 23.661417
vt 39.370079 25.632559
vt 47.241457 2.010511
vt 1.968504 0.039370
vt 47.241457 0.039370
vt 1.968504 2.010511
vt 1.971141 2.010511
vt -1.971141 0.039370
vt 0.000000 0.000000
vt 0.000000 0.039370
vt -1.971141 0.000000
vt 47.241457 25.632559
vt 1.971141 23.661417
vt 47.241457 23.661417
vt 1.971141 25.632559
vt -49.212598 37.398937
vt -47.241457 1.971141
vt -47.241457 37.398937
vt -47.241457 1.968504
vt -49.212598 1.968504
vt 49.212598 23.661417
vt 47.241457 2.010511
vt 49.212598 2.010511
vt 47.241457 23.661417
vt -37.398937 23.661417
vt -39.370079 2.010511
vt -37.398937 2.010511
vt -39.370079 23.661417
vt 49.212598 1.968504
vt 47.241457 37.398937
vt 47.241457 1.968504
vt 49.212598 37.398937
vt 47.241457 37.398937
vt 1.971141 39.370079
vt 1.971141 37.398937
vt 47.241457 39.370079
vt -1.971141 25.632559
vt -47.241457 23.661417
vt -1.971141 23.661417
vt -47.241457 25.632559
vt -37.398937 25.632559
vt -1.971141 23.661417
vt -1.971141 25.632559
vt -37.398937 23.661417
vt -47.241457 1.971141
vt -1.971141 0.000000
vt -1.971141 1.971141
vt -47.241457 0.000000
vt -47.241457 1.968504
vt 37.398937 23.661417
vt 1.971141 25.632559
vt 1.971141 23.661417
vt 37.398937 25.632559
vt -1.968504 23.661417
vt 0.000000 2.010511
vt 0.000000 23.661417
vt -1.968504 2.010511
vt -47.241457 39.370079
vt -1.971141 37.398937
vt -1.971141 39.370079
vt -47.241457 37.398937
vt -1.971141 37.398937
vt 0.000000 1.971141
vt 0.000000 37.398937
vt -1.971141 1.971141
vt 39.370079 2.010511
vt 37.398937 23.661417
vt 37.398937 2.010511
vt 39.370079 23.661417
vt 1.971141 23.661417
vt 1.968504 2.010511
vt 1.971141 2.010511
vt 0.000000 2.010511
vt 0.000000 23.661417
vt 47.241457 25.632559
vt 1.971141 23.661417
vt 47.241457 23.661417
vt 0.000000 2.010511
vt 1.971141 2.010511
vt 0.000000 25.632559
vt 1.968504 23.661417
vt 0.000000 25.632559
vt 0.000000 23.661417
vt 1.971141 25.632559
vt 1.971141 23.661417
vt 49.212598 25.632559
vt 47.241457 2.010511
vt 49.212598 0.039370
vt 47.241457 23.661417
vt 47.241457 25.632559
vt 1.971141 2.010511
vt 1.971141 0.039370
vt -1.971141 2.010511
vt -0.000000 2.010511
vt -1.971141 23.661417
vt 0.000000 25.632559
vt -39.370079 25.632559
vt -37.398937 23.661417
vt -37.398937 2.010511
vt -39.370079 0.039370
vt -1.971141 0.039370
vt 1.971141 0.000000
vt 0.000000 1.971141
vt 0.000000 0.000000
vt 1.968504 1.968504
vt 47.241457 1.968504
vt 47.241457 0.000000
vt 1.968504 37.398937
vt 0.000000 37.398937
vt -1.971141 2.010511
vt 0.000000 0.039370
vt 0.000000 2.010511
vt -1.971141 0.039370
vt 1.971141 -0.000000
vt -0.000000 0.039370
vt -0.000000 -0.000000
vt -0.000000 2.010511
vt -0.000000 23.661417
vt 1.971141 23.661417
vt -0.000000 0.039370
vt -1.971141 0.000000
vt 0.000000 0.000000
vt -1.971141 23.661417
vt -0.000000 2.010511
vt 0.000000 23.661417
f 10/10/10 11/11/11 12/12/12
f 11/11/11 10/10/10 13/13/13
f 14/14/14 15/15/15 16/16/16
f 15/15/15 14/14/14 17/17/17
f 18/18/18 19/19/19 20/20/20
f 19/19/19 18/18/18 21/21/21
f 22/22/22 23/23/23 24/24/24
f 23/23/23 22/22/22 25/25/25
f 23/23/23 25/25/25 26/26/26
f 26/26/26 25/25/25 27/27/27
f 26/26/26 27/27/27 28/28/28
f 24/24/24 29/29/29 30/30/30
f 29/29/29 24/24/24 23/23/23
f 30/30/30 29/29/29 28/28/28
f 30/30/30 28/28/28 27/27/27
f 31/31/31 32/32/32 33/33/33
f 32/32/32 31/31/31 34/34/34
f 33/33/33 32/32/32 35/35/35
f 32/32/32 34/34/34 36/36/36
f 36/36/36 34/34/34 37/37/37
f 35/35/35 38/38/38 33/33/33
f 38/38/38 35/35/35 37/37/37
f 38/38/38 37/37/37 34/34/34
f 39/39/39 40/40/40 41/41/41
f 40/40/40 39/39/39 42/42/42
f 41/41/41 40/40/40 43/43/43
f 40/40/40 42/42/42 44/44/44
f 44/44/44 42/42/42 45/45/45
f 45/45/45 42/42/42 46/46/46
f 43/43/43 47/47/47 48/48/48
f 47/47/47 43/43/43 40/40/40
f 48/48/48 47/47/47 45/45/45
f 48/48/48 45/45/45 49/49/49
f 49/49/49 45/45/45 46/46/46
f 50/50/50 51/51/51 52/52/52
f 51/51/51 50/50/50 53/53/53
f 54/54/54 55/55/55 56/56/56
f 55/55/55 54/54/54 57/57/57
f 58/58/58 59/59/59 60/60/60
f 59/59/59 58/58/58 61/61/61
f 59/59/59 61/61/61 62/62/62
f 63/63/63 62/62/62 61/61/61
f 62/62/62 63/63/63 64/64/64
f 60/60/60 65/65/65 66/66/66
f 65/65/65 60/60/60 59/59/59
f 66/66/66 65/65/65 64/64/64
f 66/66/66 64/64/64 63/63/63
f 67/67/67 68/68/68 69/69/69
f 68/68/68 67/67/67 70/70/70
f 70/70/70 67/67/67 71/71/71
f 72/72/72 73/73/73 74/74/74
f 73/73/73 72/72/72 75/75/75
f 76/76/76 77/77/77 78/78/78
f 77/77/77 76/76/76 79/79/79
f 80/80/80 81/81/81 82/82/82
f 81/81/81 80/80/80 83/83/83
f 83/83/83 80/80/80 84/84/84
f 85/85/85 86/86/86 87/87/87
f 86/86/86 85/85/85 88/88/88
f 89/89/89 90/90/90 91/91/91
f 90/90/90 89/89/89 92/92/92
f 93/93/93 94/94/94 95/95/95
f 94/94/94 93/93/93 96/96/96
f 97/97/97 98/98/98 99/99/99
f 98/98/98 97/97/97 100/100/100
f 101/101/101 102/102/102 103/103/103
f 102/102/102 101/101/101 104/104/104
f 105/105/105 106/106/106 107/107/107
f 106/106/106 105/105/105 108/108/108
f 109/109/109 110/110/110 111/111/111
f 110/110/110 109/109/109 112/112/112
f 112/112/112 109/109/109 113/113/113
f 114/114/114 115/115/115 116/116/116
f 115/115/115 114/114/114 117/117/117
f 118/118/118 119/119/119 120/120/120
f 119/119/119 118/118/118 121/121/121
f 122/122/122 123/123/123 124/124/124
f 123/123/123 122/122/122 125/125/125
f 126/126/126 127/127/127 128/128/128
f 127/127/127 126/126/126 129/129/129
f 130/130/130 131/131/131 132/132/132
f 131/131/131 130/130/130 133/133/133
f 134/134/134 135/135/135 136/136/136
f 135/135/135 134/134/134 137/137/137
f 137/137/137 134/134/134 138/138/138
f 139/139/139 140/140/140 141/141/141
f 140/140/140 142/142/142 143/143/143
f 142/142/142 140/140/140 144/144/144
f 144/144/144 140/140/140 139/139/139
f 145/145/145 146/146/146 147/147/147
f 146/146/146 145/145/145 148/148/148
f 148/148/148 145/145/145 149/149/149
f 150/150/150 151/151/151 152/152/152
f 151/151/151 150/150/150 153/153/153
f 153/153/153 150/150/150 154/154/154
f 152/152/152 155/155/155 156/156/156
f 155/155/155 152/152/152 151/151/151
f 157/157/157 158/158/158 159/159/159
f 160/160/160 159/159/159 158/158/158
f 159/159/159 160/160/160 161/161/161
f 159/159/159 161/161/161 162/162/162
f 162/162/162 161/161/161 163/163/163
f 163/163/163 161/161/161 164/164/164
f 163/163/163 165/165/165 157/157/157
f 165/165/165 163/163/163 164/164/164
f 166/166/166 167/167/167 168/168/168
f 167/167/167 166/166/166 169/169/169
f 169/169/169 166/166/166 170/170/170
f 170/170/170 166/166/166 171/171/171
f 167/167/167 172/172/172 173/173/173
f 172/172/172 167/167/167 169/169/169
f 174/174/174 175/175/175 176/176/176
f 175/175/175 174/174/174 177/177/177
f 178/178/178 179/179/179 180/180/180
f 179/179/179 178/178/178 181/181/181
f 181/181/181 178/178/178 182/182/182
f 182/182/182 178/178/178 183/183/183
f 184/184/184 185/185/185 186/186/186
f 185/185/185 184/184/184 187/187/187
f 187/187/187 184/184/184 188/188/188
f 187/187/187 188/188/188 189/189/189

