# Blender 4.2.3 LTS
# www.blender.org
mtllib rotary_missile_magazine.mtl
g Cylinder
v 0.000000 0.000000 -0.500000
v 0.000000 6.000000 -0.500000
v 0.353553 0.000000 -0.353553
v 0.353553 6.000000 -0.353553
v 0.500000 0.000000 0.000000
v 0.500000 6.000000 0.000000
v 0.353553 0.000000 0.353553
v 0.353553 6.000000 0.353553
v 0.000000 0.000000 0.500000
v 0.000000 6.000000 0.500000
v -0.353553 0.000000 0.353553
v -0.353553 6.000000 0.353553
v -0.500000 0.000000 0.000000
v -0.500000 6.000000 0.000000
v -0.353553 0.000000 -0.353553
v -0.353553 6.000000 -0.353553
vn 0.3827 -0.0000 -0.9239
vn 0.9239 -0.0000 -0.3827
vn 0.9239 -0.0000 0.3827
vn 0.3827 -0.0000 0.9239
vn -0.3827 -0.0000 0.9239
vn -0.9239 -0.0000 0.3827
vn -0.0000 1.0000 -0.0000
vn -0.9239 -0.0000 -0.3827
vn -0.3827 -0.0000 -0.9239
vn -0.0000 -1.0000 -0.0000
vt 1.000000 0.500000
vt 1.000000 1.000000
vt 0.875000 1.000000
vt 0.875000 0.500000
vt 0.750000 1.000000
vt 0.750000 0.500000
vt 0.625000 1.000000
vt 0.625000 0.500000
vt 0.500000 1.000000
vt 0.500000 0.500000
vt 0.375000 1.000000
vt 0.375000 0.500000
vt 0.250000 1.000000
vt 0.250000 0.500000
vt 0.419706 0.419706
vt 0.250000 0.490000
vt 0.080294 0.419706
vt 0.010000 0.250000
vt 0.080294 0.080294
vt 0.250000 0.010000
vt 0.419706 0.080294
vt 0.490000 0.250000
vt 0.125000 1.000000
vt 0.125000 0.500000
vt 0.000000 1.000000
vt 0.000000 0.500000
vt 0.750000 0.490000
vt 0.919706 0.419706
vt 0.990000 0.250000
vt 0.919706 0.080294
vt 0.750000 0.010000
vt 0.580294 0.080294
vt 0.510000 0.250000
vt 0.580294 0.419706
s 0
f 1/1/1 2/2/1 4/3/1 3/4/1
f 3/4/2 4/3/2 6/5/2 5/6/2
f 5/6/3 6/5/3 8/7/3 7/8/3
f 7/8/4 8/7/4 10/9/4 9/10/4
f 9/10/5 10/9/5 12/11/5 11/12/5
f 11/12/6 12/11/6 14/13/6 13/14/6
f 4/15/7 2/16/7 16/17/7 14/18/7 12/19/7 10/20/7 8/21/7 6/22/7
f 13/14/8 14/13/8 16/23/8 15/24/8
f 15/24/9 16/23/9 2/25/9 1/26/9
f 1/27/10 3/28/10 5/29/10 7/30/10 9/31/10 11/32/10 13/33/10 15/34/10
g Arm00
v -1.716866 2.812500 0.759463
v -1.716866 3.187500 0.759463
v -1.784060 2.812500 0.584417
v -1.784060 3.187500 0.584417
v 1.784060 2.812500 -0.584417
v 1.784060 3.187500 -0.584417
v 1.716866 2.812500 -0.759463
v 1.716866 3.187500 -0.759463
vn -0.9336 -0.0000 0.3584
vn -0.3584 -0.0000 -0.9336
vn 0.9336 -0.0000 -0.3584
vn 0.3584 -0.0000 0.9336
vn -0.0000 -1.0000 -0.0000
vn -0.0000 1.0000 -0.0000
vt 0.375000 0.000000
vt 0.625000 0.000000
vt 0.625000 0.250000
vt 0.375000 0.250000
vt 0.625000 0.500000
vt 0.375000 0.500000
vt 0.625000 0.750000
vt 0.375000 0.750000
vt 0.625000 1.000000
vt 0.375000 1.000000
vt 0.125000 0.500000
vt 0.125000 0.750000
vt 0.875000 0.500000
vt 0.875000 0.750000
s 0
f 17/35/11 18/36/11 20/37/11 19/38/11
f 19/38/12 20/37/12 24/39/12 23/40/12
f 23/40/13 24/39/13 22/41/13 21/42/13
f 21/42/14 22/41/14 18/43/14 17/44/14
f 19/45/15 23/40/15 21/42/15 17/46/15
f 24/39/16 20/47/16 18/48/16 22/41/16
g Cube.004
v 1.991384 2.531250 -0.262322
v 1.991384 3.468750 -0.262322
v 1.655414 2.531250 -1.137553
v 1.655414 3.468750 -1.137553
v 2.078907 2.531250 -0.295919
v 2.078907 3.468750 -0.295919
v 1.742937 2.531250 -1.171150
v 1.742937 3.468750 -1.171150
v -1.991385 2.531250 0.262322
v -1.991385 3.468750 0.262322
v -1.655413 2.531250 1.137553
v -1.655413 3.468750 1.137553
v -2.078908 2.531250 0.295919
v -2.078908 3.468750 0.295919
v -1.742936 2.531250 1.171150
v -1.742936 3.468750 1.171150
vn -0.9336 -0.0000 0.3584
vn -0.3584 -0.0000 -0.9336
vn 0.9336 -0.0000 -0.3584
vn 0.3584 -0.0000 0.9336
vn -0.0000 -1.0000 -0.0000
vn -0.0000 1.0000 -0.0000
vt 0.375000 0.000000
vt 0.625000 0.000000
vt 0.625000 0.250000
vt 0.375000 0.250000
vt 0.625000 0.500000
vt 0.375000 0.500000
vt 0.625000 0.750000
vt 0.375000 0.750000
vt 0.625000 1.000000
vt 0.375000 1.000000
vt 0.125000 0.500000
vt 0.125000 0.750000
vt 0.875000 0.500000
vt 0.875000 0.750000
s 0
f 25/49/17 26/50/17 28/51/17 27/52/17
f 27/52/18 28/51/18 32/53/18 31/54/18
f 31/54/19 32/53/19 30/55/19 29/56/19
f 29/56/20 30/55/20 26/57/20 25/58/20
f 27/59/21 31/54/21 29/56/21 25/60/21
f 32/53/22 28/61/22 26/62/22 30/55/22
f 33/49/19 34/50/19 36/51/19 35/52/19
f 35/52/20 36/51/20 40/53/20 39/54/20
f 39/54/17 40/53/17 38/55/17 37/56/17
f 37/56/18 38/55/18 34/57/18 33/58/18
f 35/59/21 39/54/21 37/56/21 33/60/21
f 40/53/22 36/61/22 34/62/22 38/55/22
g Cube.001
v 1.222632 2.531250 -1.593611
v 1.222632 3.468750 -1.593611
v 0.366183 2.531250 -1.974926
v 0.366183 3.468750 -1.974926
v 1.260763 2.531250 -1.679256
v 1.260763 3.468750 -1.679256
v 0.404315 2.531250 -2.060571
v 0.404315 3.468750 -2.060571
v -1.222632 2.531250 1.593611
v -1.222632 3.468750 1.593611
v -0.366183 2.531250 1.974925
v -0.366183 3.468750 1.974925
v -1.260764 2.531250 1.679256
v -1.260764 3.468750 1.679256
v -0.404314 2.531250 2.060570
v -0.404314 3.468750 2.060570
vn -0.4067 -0.0000 0.9135
vn -0.9135 -0.0000 -0.4067
vn 0.4067 -0.0000 -0.9135
vn 0.9135 -0.0000 0.4067
vn -0.0000 -1.0000 -0.0000
vn -0.0000 1.0000 -0.0000
vt 0.375000 0.000000
vt 0.625000 0.000000
vt 0.625000 0.250000
vt 0.375000 0.250000
vt 0.625000 0.500000
vt 0.375000 0.500000
vt 0.625000 0.750000
vt 0.375000 0.750000
vt 0.625000 1.000000
vt 0.375000 1.000000
vt 0.125000 0.500000
vt 0.125000 0.750000
vt 0.875000 0.500000
vt 0.875000 0.750000
s 0
f 41/63/23 42/64/23 44/65/23 43/66/23
f 43/66/24 44/65/24 48/67/24 47/68/24
f 47/68/25 48/67/25 46/69/25 45/70/25
f 45/70/26 46/69/26 42/71/26 41/72/26
f 43/73/27 47/68/27 45/70/27 41/74/27
f 48/67/28 44/75/28 42/76/28 46/69/28
f 49/63/25 50/64/25 52/65/25 51/66/25
f 51/66/26 52/65/26 56/67/26 55/68/26
f 55/68/23 56/67/23 54/69/23 53/70/23
f 53/70/24 54/69/24 50/71/24 49/72/24
f 51/73/27 55/68/27 53/70/27 49/74/27
f 56/67/28 52/75/28 50/76/28 54/69/28
g Arm01
v -0.676986 2.812500 1.751029
v -0.676986 3.187500 1.751029
v -0.848276 2.812500 1.674766
v -0.848276 3.187500 1.674766
v 0.848276 2.812500 -1.674766
v 0.848276 3.187500 -1.674766
v 0.676986 2.812500 -1.751029
v 0.676986 3.187500 -1.751029
vn -0.4067 -0.0000 0.9135
vn -0.9135 -0.0000 -0.4067
vn 0.4067 -0.0000 -0.9135
vn 0.9135 -0.0000 0.4067
vn -0.0000 -1.0000 -0.0000
vn -0.0000 1.0000 -0.0000
vt 0.375000 0.000000
vt 0.625000 0.000000
vt 0.625000 0.250000
vt 0.375000 0.250000
vt 0.625000 0.500000
vt 0.375000 0.500000
vt 0.625000 0.750000
vt 0.375000 0.750000
vt 0.625000 1.000000
vt 0.375000 1.000000
vt 0.125000 0.500000
vt 0.125000 0.750000
vt 0.875000 0.500000
vt 0.875000 0.750000
s 0
f 57/77/29 58/78/29 60/79/29 59/80/29
f 59/80/30 60/79/30 64/81/30 63/82/30
f 63/82/31 64/81/31 62/83/31 61/84/31
f 61/84/32 62/83/32 58/85/32 57/86/32
f 59/87/33 63/82/33 61/84/33 57/88/33
f 64/81/34 60/89/34 58/90/34 62/83/34
g Cube.002
v -0.262322 2.531250 -1.991384
v -0.262322 3.468750 -1.991384
v -1.137553 2.531250 -1.655414
v -1.137553 3.468750 -1.655414
v -0.295919 2.531250 -2.078907
v -0.295919 3.468750 -2.078907
v -1.171150 2.531250 -1.742938
v -1.171150 3.468750 -1.742938
v 0.262322 2.531250 1.991385
v 0.262322 3.468750 1.991385
v 1.137553 2.531250 1.655413
v 1.137553 3.468750 1.655413
v 0.295919 2.531250 2.078908
v 0.295919 3.468750 2.078908
v 1.171150 2.531250 1.742936
v 1.171150 3.468750 1.742936
vn 0.3584 -0.0000 0.9336
vn -0.9336 -0.0000 0.3584
vn -0.3584 -0.0000 -0.9336
vn 0.9336 -0.0000 -0.3584
vn -0.0000 -1.0000 -0.0000
vn -0.0000 1.0000 -0.0000
vt 0.375000 0.000000
vt 0.625000 0.000000
vt 0.625000 0.250000
vt 0.375000 0.250000
vt 0.625000 0.500000
vt 0.375000 0.500000
vt 0.625000 0.750000
vt 0.375000 0.750000
vt 0.625000 1.000000
vt 0.375000 1.000000
vt 0.125000 0.500000
vt 0.125000 0.750000
vt 0.875000 0.500000
vt 0.875000 0.750000
s 0
f 65/91/35 66/92/35 68/93/35 67/94/35
f 67/94/36 68/93/36 72/95/36 71/96/36
f 71/96/37 72/95/37 70/97/37 69/98/37
f 69/98/38 70/97/38 66/99/38 65/100/38
f 67/101/39 71/96/39 69/98/39 65/102/39
f 72/95/40 68/103/40 66/104/40 70/97/40
f 73/91/37 74/92/37 76/93/37 75/94/37
f 75/94/38 76/93/38 80/95/38 79/96/38
f 79/96/35 80/95/35 78/97/35 77/98/35
f 77/98/36 78/97/36 74/99/36 73/100/36
f 75/101/39 79/96/39 77/98/39 73/102/39
f 80/95/40 76/103/40 74/104/40 78/97/40
g Arm02
v 0.759463 2.812500 1.716866
v 0.759463 3.187500 1.716866
v 0.584417 2.812500 1.784060
v 0.584417 3.187500 1.784060
v -0.584417 2.812500 -1.784060
v -0.584417 3.187500 -1.784060
v -0.759463 2.812500 -1.716866
v -0.759463 3.187500 -1.716866
vn 0.3584 -0.0000 0.9336
vn -0.9336 -0.0000 0.3584
vn -0.3584 -0.0000 -0.9336
vn 0.9336 -0.0000 -0.3584
vn -0.0000 -1.0000 -0.0000
vn -0.0000 1.0000 -0.0000
vt 0.375000 0.000000
vt 0.625000 0.000000
vt 0.625000 0.250000
vt 0.375000 0.250000
vt 0.625000 0.500000
vt 0.375000 0.500000
vt 0.625000 0.750000
vt 0.375000 0.750000
vt 0.625000 1.000000
vt 0.375000 1.000000
vt 0.125000 0.500000
vt 0.125000 0.750000
vt 0.875000 0.500000
vt 0.875000 0.750000
s 0
f 81/105/41 82/106/41 84/107/41 83/108/41
f 83/108/42 84/107/42 88/109/42 87/110/42
f 87/110/43 88/109/43 86/111/43 85/112/43
f 85/112/44 86/111/44 82/113/44 81/114/44
f 83/115/45 87/110/45 85/112/45 81/116/45
f 88/109/46 84/117/46 82/118/46 86/111/46
g Cube.003
v -1.593611 2.531250 -1.222632
v -1.593611 3.468750 -1.222632
v -1.974926 2.531250 -0.366183
v -1.974926 3.468750 -0.366183
v -1.679256 2.531250 -1.260763
v -1.679256 3.468750 -1.260763
v -2.060571 2.531250 -0.404314
v -2.060571 3.468750 -0.404314
v 1.593611 2.531250 1.222632
v 1.593611 3.468750 1.222632
v 1.974925 2.531250 0.366183
v 1.974925 3.468750 0.366183
v 1.679256 2.531250 1.260763
v 1.679256 3.468750 1.260763
v 2.060570 2.531250 0.404314
v 2.060570 3.468750 0.404314
vn 0.9135 -0.0000 0.4067
vn -0.4067 -0.0000 0.9135
vn -0.9135 -0.0000 -0.4067
vn 0.4067 -0.0000 -0.9135
vn -0.0000 -1.0000 -0.0000
vn -0.0000 1.0000 -0.0000
vt 0.375000 0.000000
vt 0.625000 0.000000
vt 0.625000 0.250000
vt 0.375000 0.250000
vt 0.625000 0.500000
vt 0.375000 0.500000
vt 0.625000 0.750000
vt 0.375000 0.750000
vt 0.625000 1.000000
vt 0.375000 1.000000
vt 0.125000 0.500000
vt 0.125000 0.750000
vt 0.875000 0.500000
vt 0.875000 0.750000
s 0
f 89/119/47 90/120/47 92/121/47 91/122/47
f 91/122/48 92/121/48 96/123/48 95/124/48
f 95/124/49 96/123/49 94/125/49 93/126/49
f 93/126/50 94/125/50 90/127/50 89/128/50
f 91/129/51 95/124/51 93/126/51 89/130/51
f 96/123/52 92/131/52 90/132/52 94/125/52
f 97/119/49 98/120/49 100/121/49 99/122/49
f 99/122/50 100/121/50 104/123/50 103/124/50
f 103/124/47 104/123/47 102/125/47 101/126/47
f 101/126/48 102/125/48 98/127/48 97/128/48
f 99/129/51 103/124/51 101/126/51 97/130/51
f 104/123/52 100/131/52 98/132/52 102/125/52
g Arm03
v 1.751029 2.812500 0.676986
v 1.751029 3.187500 0.676986
v 1.674766 2.812500 0.848276
v 1.674766 3.187500 0.848276
v -1.674766 2.812500 -0.848276
v -1.674766 3.187500 -0.848276
v -1.751029 2.812500 -0.676986
v -1.751029 3.187500 -0.676986
vn 0.9135 -0.0000 0.4067
vn -0.4067 -0.0000 0.9135
vn -0.9135 -0.0000 -0.4067
vn 0.4067 -0.0000 -0.9135
vn -0.0000 -1.0000 -0.0000
vn -0.0000 1.0000 -0.0000
vt 0.375000 0.000000
vt 0.625000 0.000000
vt 0.625000 0.250000
vt 0.375000 0.250000
vt 0.625000 0.500000
vt 0.375000 0.500000
vt 0.625000 0.750000
vt 0.375000 0.750000
vt 0.625000 1.000000
vt 0.375000 1.000000
vt 0.125000 0.500000
vt 0.125000 0.750000
vt 0.875000 0.500000
vt 0.875000 0.750000
s 0
f 105/133/53 106/134/53 108/135/53 107/136/53
f 107/136/54 108/135/54 112/137/54 111/138/54
f 111/138/55 112/137/55 110/139/55 109/140/55
f 109/140/56 110/139/56 106/141/56 105/142/56
f 107/143/57 111/138/57 109/140/57 105/144/57
f 112/137/58 108/145/58 106/146/58 110/139/58
g Cube.004
v 1.991384 2.531250 -0.262322
v 1.991384 3.468750 -0.262322
v 1.655414 2.531250 -1.137553
v 1.655414 3.468750 -1.137553
v 2.078907 2.531250 -0.295919
v 2.078907 3.468750 -0.295919
v 1.742937 2.531250 -1.171150
v 1.742937 3.468750 -1.171150
v -1.991385 2.531250 0.262322
v -1.991385 3.468750 0.262322
v -1.655413 2.531250 1.137553
v -1.655413 3.468750 1.137553
v -2.078908 2.531250 0.295919
v -2.078908 3.468750 0.295919
v -1.742936 2.531250 1.171150
v -1.742936 3.468750 1.171150
vn -0.9336 -0.0000 0.3584
vn -0.3584 -0.0000 -0.9336
vn 0.9336 -0.0000 -0.3584
vn 0.3584 -0.0000 0.9336
vn -0.0000 -1.0000 -0.0000
vn -0.0000 1.0000 -0.0000
vt 0.375000 0.000000
vt 0.625000 0.000000
vt 0.625000 0.250000
vt 0.375000 0.250000
vt 0.625000 0.500000
vt 0.375000 0.500000
vt 0.625000 0.750000
vt 0.375000 0.750000
vt 0.625000 1.000000
vt 0.375000 1.000000
vt 0.125000 0.500000
vt 0.125000 0.750000
vt 0.875000 0.500000
vt 0.875000 0.750000
s 0
f 113/147/59 114/148/59 116/149/59 115/150/59
f 115/150/60 116/149/60 120/151/60 119/152/60
f 119/152/61 120/151/61 118/153/61 117/154/61
f 117/154/62 118/153/62 114/155/62 113/156/62
f 115/157/63 119/152/63 117/154/63 113/158/63
f 120/151/64 116/159/64 114/160/64 118/153/64
f 121/147/61 122/148/61 124/149/61 123/150/61
f 123/150/62 124/149/62 128/151/62 127/152/62
f 127/152/59 128/151/59 126/153/59 125/154/59
f 125/154/60 126/153/60 122/155/60 121/156/60
f 123/157/63 127/152/63 125/154/63 121/158/63
f 128/151/64 124/159/64 122/160/64 126/153/64
g Cube.001
v 1.222632 2.531250 -1.593611
v 1.222632 3.468750 -1.593611
v 0.366183 2.531250 -1.974926
v 0.366183 3.468750 -1.974926
v 1.260763 2.531250 -1.679256
v 1.260763 3.468750 -1.679256
v 0.404315 2.531250 -2.060571
v 0.404315 3.468750 -2.060571
v -1.222632 2.531250 1.593611
v -1.222632 3.468750 1.593611
v -0.366183 2.531250 1.974925
v -0.366183 3.468750 1.974925
v -1.260764 2.531250 1.679256
v -1.260764 3.468750 1.679256
v -0.404314 2.531250 2.060570
v -0.404314 3.468750 2.060570
vn -0.4067 -0.0000 0.9135
vn -0.9135 -0.0000 -0.4067
vn 0.4067 -0.0000 -0.9135
vn 0.9135 -0.0000 0.4067
vn -0.0000 -1.0000 -0.0000
vn -0.0000 1.0000 -0.0000
vt 0.375000 0.000000
vt 0.625000 0.000000
vt 0.625000 0.250000
vt 0.375000 0.250000
vt 0.625000 0.500000
vt 0.375000 0.500000
vt 0.625000 0.750000
vt 0.375000 0.750000
vt 0.625000 1.000000
vt 0.375000 1.000000
vt 0.125000 0.500000
vt 0.125000 0.750000
vt 0.875000 0.500000
vt 0.875000 0.750000
s 0
f 129/161/65 130/162/65 132/163/65 131/164/65
f 131/164/66 132/163/66 136/165/66 135/166/66
f 135/166/67 136/165/67 134/167/67 133/168/67
f 133/168/68 134/167/68 130/169/68 129/170/68
f 131/171/69 135/166/69 133/168/69 129/172/69
f 136/165/70 132/173/70 130/174/70 134/167/70
f 137/161/67 138/162/67 140/163/67 139/164/67
f 139/164/68 140/163/68 144/165/68 143/166/68
f 143/166/65 144/165/65 142/167/65 141/168/65
f 141/168/66 142/167/66 138/169/66 137/170/66
f 139/171/69 143/166/69 141/168/69 137/172/69
f 144/165/70 140/173/70 138/174/70 142/167/70
g Cube.002
v -0.262322 2.531250 -1.991384
v -0.262322 3.468750 -1.991384
v -1.137553 2.531250 -1.655414
v -1.137553 3.468750 -1.655414
v -0.295919 2.531250 -2.078907
v -0.295919 3.468750 -2.078907
v -1.171150 2.531250 -1.742938
v -1.171150 3.468750 -1.742938
v 0.262322 2.531250 1.991385
v 0.262322 3.468750 1.991385
v 1.137553 2.531250 1.655413
v 1.137553 3.468750 1.655413
v 0.295919 2.531250 2.078908
v 0.295919 3.468750 2.078908
v 1.171150 2.531250 1.742936
v 1.171150 3.468750 1.742936
vn 0.3584 -0.0000 0.9336
vn -0.9336 -0.0000 0.3584
vn -0.3584 -0.0000 -0.9336
vn 0.9336 -0.0000 -0.3584
vn -0.0000 -1.0000 -0.0000
vn -0.0000 1.0000 -0.0000
vt 0.375000 0.000000
vt 0.625000 0.000000
vt 0.625000 0.250000
vt 0.375000 0.250000
vt 0.625000 0.500000
vt 0.375000 0.500000
vt 0.625000 0.750000
vt 0.375000 0.750000
vt 0.625000 1.000000
vt 0.375000 1.000000
vt 0.125000 0.500000
vt 0.125000 0.750000
vt 0.875000 0.500000
vt 0.875000 0.750000
s 0
f 145/175/71 146/176/71 148/177/71 147/178/71
f 147/178/72 148/177/72 152/179/72 151/180/72
f 151/180/73 152/179/73 150/181/73 149/182/73
f 149/182/74 150/181/74 146/183/74 145/184/74
f 147/185/75 151/180/75 149/182/75 145/186/75
f 152/179/76 148/187/76 146/188/76 150/181/76
f 153/175/73 154/176/73 156/177/73 155/178/73
f 155/178/74 156/177/74 160/179/74 159/180/74
f 159/180/71 160/179/71 158/181/71 157/182/71
f 157/182/72 158/181/72 154/183/72 153/184/72
f 155/185/75 159/180/75 157/182/75 153/186/75
f 160/179/76 156/187/76 154/188/76 158/181/76
g Cube.003
v -1.593611 2.531250 -1.222632
v -1.593611 3.468750 -1.222632
v -1.974926 2.531250 -0.366183
v -1.974926 3.468750 -0.366183
v -1.679256 2.531250 -1.260763
v -1.679256 3.468750 -1.260763
v -2.060571 2.531250 -0.404314
v -2.060571 3.468750 -0.404314
v 1.593611 2.531250 1.222632
v 1.593611 3.468750 1.222632
v 1.974925 2.531250 0.366183
v 1.974925 3.468750 0.366183
v 1.679256 2.531250 1.260763
v 1.679256 3.468750 1.260763
v 2.060570 2.531250 0.404314
v 2.060570 3.468750 0.404314
vn 0.9135 -0.0000 0.4067
vn -0.4067 -0.0000 0.9135
vn -0.9135 -0.0000 -0.4067
vn 0.4067 -0.0000 -0.9135
vn -0.0000 -1.0000 -0.0000
vn -0.0000 1.0000 -0.0000
vt 0.375000 0.000000
vt 0.625000 0.000000
vt 0.625000 0.250000
vt 0.375000 0.250000
vt 0.625000 0.500000
vt 0.375000 0.500000
vt 0.625000 0.750000
vt 0.375000 0.750000
vt 0.625000 1.000000
vt 0.375000 1.000000
vt 0.125000 0.500000
vt 0.125000 0.750000
vt 0.875000 0.500000
vt 0.875000 0.750000
s 0
f 161/189/77 162/190/77 164/191/77 163/192/77
f 163/192/78 164/191/78 168/193/78 167/194/78
f 167/194/79 168/193/79 166/195/79 165/196/79
f 165/196/80 166/195/80 162/197/80 161/198/80
f 163/199/81 167/194/81 165/196/81 161/200/81
f 168/193/82 164/201/82 162/202/82 166/195/82
f 169/189/79 170/190/79 172/191/79 171/192/79
f 171/192/80 172/191/80 176/193/80 175/194/80
f 175/194/77 176/193/77 174/195/77 173/196/77
f 173/196/78 174/195/78 170/197/78 169/198/78
f 171/199/81 175/194/81 173/196/81 169/200/81
f 176/193/82 172/201/82 170/202/82 174/195/82
g Arm00
v -1.716866 2.812500 0.759463
v -1.716866 3.187500 0.759463
v -1.784060 2.812500 0.584417
v -1.784060 3.187500 0.584417
v 1.784060 2.812500 -0.584417
v 1.784060 3.187500 -0.584417
v 1.716866 2.812500 -0.759463
v 1.716866 3.187500 -0.759463
vn -0.9336 -0.0000 0.3584
vn -0.3584 -0.0000 -0.9336
vn 0.9336 -0.0000 -0.3584
vn 0.3584 -0.0000 0.9336
vn -0.0000 -1.0000 -0.0000
vn -0.0000 1.0000 -0.0000
vt 0.375000 0.000000
vt 0.625000 0.000000
vt 0.625000 0.250000
vt 0.375000 0.250000
vt 0.625000 0.500000
vt 0.375000 0.500000
vt 0.625000 0.750000
vt 0.375000 0.750000
vt 0.625000 1.000000
vt 0.375000 1.000000
vt 0.125000 0.500000
vt 0.125000 0.750000
vt 0.875000 0.500000
vt 0.875000 0.750000
s 0
f 177/203/83 178/204/83 180/205/83 179/206/83
f 179/206/84 180/205/84 184/207/84 183/208/84
f 183/208/85 184/207/85 182/209/85 181/210/85
f 181/210/86 182/209/86 178/211/86 177/212/86
f 179/213/87 183/208/87 181/210/87 177/214/87
f 184/207/88 180/215/88 178/216/88 182/209/88
g Arm01
v -0.676986 2.812500 1.751029
v -0.676986 3.187500 1.751029
v -0.848276 2.812500 1.674766
v -0.848276 3.187500 1.674766
v 0.848276 2.812500 -1.674766
v 0.848276 3.187500 -1.674766
v 0.676986 2.812500 -1.751029
v 0.676986 3.187500 -1.751029
vn -0.4067 -0.0000 0.9135
vn -0.9135 -0.0000 -0.4067
vn 0.4067 -0.0000 -0.9135
vn 0.9135 -0.0000 0.4067
vn -0.0000 -1.0000 -0.0000
vn -0.0000 1.0000 -0.0000
vt 0.375000 0.000000
vt 0.625000 0.000000
vt 0.625000 0.250000
vt 0.375000 0.250000
vt 0.625000 0.500000
vt 0.375000 0.500000
vt 0.625000 0.750000
vt 0.375000 0.750000
vt 0.625000 1.000000
vt 0.375000 1.000000
vt 0.125000 0.500000
vt 0.125000 0.750000
vt 0.875000 0.500000
vt 0.875000 0.750000
s 0
f 185/217/89 186/218/89 188/219/89 187/220/89
f 187/220/90 188/219/90 192/221/90 191/222/90
f 191/222/91 192/221/91 190/223/91 189/224/91
f 189/224/92 190/223/92 186/225/92 185/226/92
f 187/227/93 191/222/93 189/224/93 185/228/93
f 192/221/94 188/229/94 186/230/94 190/223/94
g Arm02
v 0.759463 2.812500 1.716866
v 0.759463 3.187500 1.716866
v 0.584417 2.812500 1.784060
v 0.584417 3.187500 1.784060
v -0.584417 2.812500 -1.784060
v -0.584417 3.187500 -1.784060
v -0.759463 2.812500 -1.716866
v -0.759463 3.187500 -1.716866
vn 0.3584 -0.0000 0.9336
vn -0.9336 -0.0000 0.3584
vn -0.3584 -0.0000 -0.9336
vn 0.9336 -0.0000 -0.3584
vn -0.0000 -1.0000 -0.0000
vn -0.0000 1.0000 -0.0000
vt 0.375000 0.000000
vt 0.625000 0.000000
vt 0.625000 0.250000
vt 0.375000 0.250000
vt 0.625000 0.500000
vt 0.375000 0.500000
vt 0.625000 0.750000
vt 0.375000 0.750000
vt 0.625000 1.000000
vt 0.375000 1.000000
vt 0.125000 0.500000
vt 0.125000 0.750000
vt 0.875000 0.500000
vt 0.875000 0.750000
s 0
f 193/231/95 194/232/95 196/233/95 195/234/95
f 195/234/96 196/233/96 200/235/96 199/236/96
f 199/236/97 200/235/97 198/237/97 197/238/97
f 197/238/98 198/237/98 194/239/98 193/240/98
f 195/241/99 199/236/99 197/238/99 193/242/99
f 200/235/100 196/243/100 194/244/100 198/237/100
g Arm03
v 1.751029 2.812500 0.676986
v 1.751029 3.187500 0.676986
v 1.674766 2.812500 0.848276
v 1.674766 3.187500 0.848276
v -1.674766 2.812500 -0.848276
v -1.674766 3.187500 -0.848276
v -1.751029 2.812500 -0.676986
v -1.751029 3.187500 -0.676986
vn 0.9135 -0.0000 0.4067
vn -0.4067 -0.0000 0.9135
vn -0.9135 -0.0000 -0.4067
vn 0.4067 -0.0000 -0.9135
vn -0.0000 -1.0000 -0.0000
vn -0.0000 1.0000 -0.0000
vt 0.375000 0.000000
vt 0.625000 0.000000
vt 0.625000 0.250000
vt 0.375000 0.250000
vt 0.625000 0.500000
vt 0.375000 0.500000
vt 0.625000 0.750000
vt 0.375000 0.750000
vt 0.625000 1.000000
vt 0.375000 1.000000
vt 0.125000 0.500000
vt 0.125000 0.750000
vt 0.875000 0.500000
vt 0.875000 0.750000
s 0
f 201/245/101 202/246/101 204/247/101 203/248/101
f 203/248/102 204/247/102 208/249/102 207/250/102
f 207/250/103 208/249/103 206/251/103 205/252/103
f 205/252/104 206/251/104 202/253/104 201/254/104
f 203/255/105 207/250/105 205/252/105 201/256/105
f 208/249/106 204/257/106 202/258/106 206/251/106
g Cylinder
v 0.000000 0.000000 -0.500000
v 0.000000 6.000000 -0.500000
v 0.353553 0.000000 -0.353553
v 0.353553 6.000000 -0.353553
v 0.500000 0.000000 0.000000
v 0.500000 6.000000 0.000000
v 0.353553 0.000000 0.353553
v 0.353553 6.000000 0.353553
v 0.000000 0.000000 0.500000
v 0.000000 6.000000 0.500000
v -0.353553 0.000000 0.353553
v -0.353553 6.000000 0.353553
v -0.500000 0.000000 0.000000
v -0.500000 6.000000 0.000000
v -0.353553 0.000000 -0.353553
v -0.353553 6.000000 -0.353553
vn 0.3827 -0.0000 -0.9239
vn 0.9239 -0.0000 -0.3827
vn 0.9239 -0.0000 0.3827
vn 0.3827 -0.0000 0.9239
vn -0.3827 -0.0000 0.9239
vn -0.9239 -0.0000 0.3827
vn -0.0000 1.0000 -0.0000
vn -0.9239 -0.0000 -0.3827
vn -0.3827 -0.0000 -0.9239
vn -0.0000 -1.0000 -0.0000
vt 1.000000 0.500000
vt 1.000000 1.000000
vt 0.875000 1.000000
vt 0.875000 0.500000
vt 0.750000 1.000000
vt 0.750000 0.500000
vt 0.625000 1.000000
vt 0.625000 0.500000
vt 0.500000 1.000000
vt 0.500000 0.500000
vt 0.375000 1.000000
vt 0.375000 0.500000
vt 0.250000 1.000000
vt 0.250000 0.500000
vt 0.419706 0.419706
vt 0.250000 0.490000
vt 0.080294 0.419706
vt 0.010000 0.250000
vt 0.080294 0.080294
vt 0.250000 0.010000
vt 0.419706 0.080294
vt 0.490000 0.250000
vt 0.125000 1.000000
vt 0.125000 0.500000
vt 0.000000 1.000000
vt 0.000000 0.500000
vt 0.750000 0.490000
vt 0.919706 0.419706
vt 0.990000 0.250000
vt 0.919706 0.080294
vt 0.750000 0.010000
vt 0.580294 0.080294
vt 0.510000 0.250000
vt 0.580294 0.419706
s 0
f 209/259/107 210/260/107 212/261/107 211/262/107
f 211/262/108 212/261/108 214/263/108 213/264/108
f 213/264/109 214/263/109 216/265/109 215/266/109
f 215/266/110 216/265/110 218/267/110 217/268/110
f 217/268/111 218/267/111 220/269/111 219/270/111
f 219/270/112 220/269/112 222/271/112 221/272/112
f 212/273/113 210/274/113 224/275/113 222/276/113 220/277/113 218/278/113 216/279/113 214/280/113
f 221/272/114 222/271/114 224/281/114 223/282/114
f 223/282/115 224/281/115 210/283/115 209/284/115
f 209/285/116 211/286/116 213/287/116 215/288/116 217/289/116 219/290/116 221/291/116 223/292/116
